<?xml version="1.0" encoding="UTF-8" standalone="no"?>
<!DOCTYPE svg PUBLIC "-//W3C//DTD SVG 1.1//EN"
 "http://www.w3.org/Graphics/SVG/1.1/DTD/svg11.dtd">
<!-- Generated by graphviz version 7.1.0 (20230121.1956)
 -->
<!-- Pages: 1 -->
<svg width="871pt" height="1220pt"
 viewBox="0.00 0.00 871.43 1220.00" xmlns="http://www.w3.org/2000/svg" xmlns:xlink="http://www.w3.org/1999/xlink">
<g id="graph0" class="graph" transform="scale(0.862801 0.862801) rotate(0) translate(4 1410)">
<polygon fill="white" stroke="none" points="-4,4 -4,-1410 1006,-1410 1006,4 -4,4"/>
<!-- 1642880786944 -->
<g id="node1" class="node">
<title>1642880786944</title>
<polygon fill="#caff70" stroke="black" points="839.5,-31 785.5,-31 785.5,0 839.5,0 839.5,-31"/>
<text text-anchor="middle" x="812.5" y="-7" font-family="monospace" font-size="10.00"> ()</text>
</g>
<!-- 1643016237840 -->
<g id="node2" class="node">
<title>1643016237840</title>
<polygon fill="lightgrey" stroke="black" points="860,-86 765,-86 765,-67 860,-67 860,-86"/>
<text text-anchor="middle" x="812.5" y="-74" font-family="monospace" font-size="10.00">MeanBackward0</text>
</g>
<!-- 1643016237840&#45;&gt;1642880786944 -->
<g id="edge56" class="edge">
<title>1643016237840&#45;&gt;1642880786944</title>
<path fill="none" stroke="black" d="M812.5,-66.54C812.5,-60.07 812.5,-50.98 812.5,-42.32"/>
<polygon fill="black" stroke="black" points="816,-42.58 812.5,-32.58 809,-42.58 816,-42.58"/>
</g>
<!-- 1643016240096 -->
<g id="node3" class="node">
<title>1643016240096</title>
<polygon fill="lightgrey" stroke="black" points="860,-141 765,-141 765,-122 860,-122 860,-141"/>
<text text-anchor="middle" x="812.5" y="-129" font-family="monospace" font-size="10.00">AddmmBackward</text>
</g>
<!-- 1643016240096&#45;&gt;1643016237840 -->
<g id="edge1" class="edge">
<title>1643016240096&#45;&gt;1643016237840</title>
<path fill="none" stroke="black" d="M812.5,-121.75C812.5,-115.27 812.5,-106.16 812.5,-97.9"/>
<polygon fill="black" stroke="black" points="816,-97.96 812.5,-87.96 809,-97.96 816,-97.96"/>
</g>
<!-- 1643016239424 -->
<g id="node4" class="node">
<title>1643016239424</title>
<polygon fill="lightgrey" stroke="black" points="747,-196 646,-196 646,-177 747,-177 747,-196"/>
<text text-anchor="middle" x="696.5" y="-184" font-family="monospace" font-size="10.00">AccumulateGrad</text>
</g>
<!-- 1643016239424&#45;&gt;1643016240096 -->
<g id="edge2" class="edge">
<title>1643016239424&#45;&gt;1643016240096</title>
<path fill="none" stroke="black" d="M716.18,-176.51C734.45,-168.16 761.91,-155.61 782.85,-146.05"/>
<polygon fill="black" stroke="black" points="784.1,-149.33 791.74,-141.99 781.19,-142.96 784.1,-149.33"/>
</g>
<!-- 1642891138688 -->
<g id="node5" class="node">
<title>1642891138688</title>
<polygon fill="lightblue" stroke="black" points="726,-262 667,-262 667,-232 726,-232 726,-262"/>
<text text-anchor="middle" x="696.5" y="-250" font-family="monospace" font-size="10.00">15.bias</text>
<text text-anchor="middle" x="696.5" y="-239" font-family="monospace" font-size="10.00"> (10)</text>
</g>
<!-- 1642891138688&#45;&gt;1643016239424 -->
<g id="edge3" class="edge">
<title>1642891138688&#45;&gt;1643016239424</title>
<path fill="none" stroke="black" d="M696.5,-231.54C696.5,-224.34 696.5,-215.53 696.5,-207.68"/>
<polygon fill="black" stroke="black" points="700,-207.69 696.5,-197.69 693,-207.69 700,-207.69"/>
</g>
<!-- 1643016239328 -->
<g id="node6" class="node">
<title>1643016239328</title>
<polygon fill="lightgrey" stroke="black" points="860,-196 765,-196 765,-177 860,-177 860,-196"/>
<text text-anchor="middle" x="812.5" y="-184" font-family="monospace" font-size="10.00">ReluBackward0</text>
</g>
<!-- 1643016239328&#45;&gt;1643016240096 -->
<g id="edge4" class="edge">
<title>1643016239328&#45;&gt;1643016240096</title>
<path fill="none" stroke="black" d="M812.5,-176.75C812.5,-170.27 812.5,-161.16 812.5,-152.9"/>
<polygon fill="black" stroke="black" points="816,-152.96 812.5,-142.96 809,-152.96 816,-152.96"/>
</g>
<!-- 1643016240816 -->
<g id="node7" class="node">
<title>1643016240816</title>
<polygon fill="lightgrey" stroke="black" points="855,-256.5 760,-256.5 760,-237.5 855,-237.5 855,-256.5"/>
<text text-anchor="middle" x="807.5" y="-244.5" font-family="monospace" font-size="10.00">AddmmBackward</text>
</g>
<!-- 1643016240816&#45;&gt;1643016239328 -->
<g id="edge5" class="edge">
<title>1643016240816&#45;&gt;1643016239328</title>
<path fill="none" stroke="black" d="M808.24,-237.37C808.91,-229.5 809.93,-217.6 810.8,-207.39"/>
<polygon fill="black" stroke="black" points="814.27,-207.94 811.63,-197.68 807.29,-207.34 814.27,-207.94"/>
</g>
<!-- 1643016237792 -->
<g id="node8" class="node">
<title>1643016237792</title>
<polygon fill="lightgrey" stroke="black" points="705,-322.5 604,-322.5 604,-303.5 705,-303.5 705,-322.5"/>
<text text-anchor="middle" x="654.5" y="-310.5" font-family="monospace" font-size="10.00">AccumulateGrad</text>
</g>
<!-- 1643016237792&#45;&gt;1643016240816 -->
<g id="edge6" class="edge">
<title>1643016237792&#45;&gt;1643016240816</title>
<path fill="none" stroke="black" d="M675.77,-303.1C701.81,-292.21 746.11,-273.68 776.08,-261.14"/>
<polygon fill="black" stroke="black" points="777.14,-264.5 785.01,-257.41 774.43,-258.04 777.14,-264.5"/>
</g>
<!-- 1642546740672 -->
<g id="node9" class="node">
<title>1642546740672</title>
<polygon fill="lightblue" stroke="black" points="684,-394 625,-394 625,-364 684,-364 684,-394"/>
<text text-anchor="middle" x="654.5" y="-382" font-family="monospace" font-size="10.00">13.bias</text>
<text text-anchor="middle" x="654.5" y="-371" font-family="monospace" font-size="10.00"> (512)</text>
</g>
<!-- 1642546740672&#45;&gt;1643016237792 -->
<g id="edge7" class="edge">
<title>1642546740672&#45;&gt;1643016237792</title>
<path fill="none" stroke="black" d="M654.5,-363.8C654.5,-355.09 654.5,-343.81 654.5,-334.18"/>
<polygon fill="black" stroke="black" points="658,-334.36 654.5,-324.36 651,-334.36 658,-334.36"/>
</g>
<!-- 1643016238944 -->
<g id="node10" class="node">
<title>1643016238944</title>
<polygon fill="lightgrey" stroke="black" points="818,-322.5 723,-322.5 723,-303.5 818,-303.5 818,-322.5"/>
<text text-anchor="middle" x="770.5" y="-310.5" font-family="monospace" font-size="10.00">ReluBackward0</text>
</g>
<!-- 1643016238944&#45;&gt;1643016240816 -->
<g id="edge8" class="edge">
<title>1643016238944&#45;&gt;1643016240816</title>
<path fill="none" stroke="black" d="M775.64,-303.1C781.06,-293.74 789.73,-278.73 796.67,-266.74"/>
<polygon fill="black" stroke="black" points="799.67,-268.54 801.64,-258.13 793.61,-265.04 799.67,-268.54"/>
</g>
<!-- 1643016239088 -->
<g id="node11" class="node">
<title>1643016239088</title>
<polygon fill="lightgrey" stroke="black" points="809,-388.5 714,-388.5 714,-369.5 809,-369.5 809,-388.5"/>
<text text-anchor="middle" x="761.5" y="-376.5" font-family="monospace" font-size="10.00">AddmmBackward</text>
</g>
<!-- 1643016239088&#45;&gt;1643016238944 -->
<g id="edge9" class="edge">
<title>1643016239088&#45;&gt;1643016238944</title>
<path fill="none" stroke="black" d="M762.75,-369.1C764.01,-360.12 766.01,-345.95 767.66,-334.22"/>
<polygon fill="black" stroke="black" points="771.12,-334.71 769.05,-324.32 764.19,-333.74 771.12,-334.71"/>
</g>
<!-- 1643016238608 -->
<g id="node12" class="node">
<title>1643016238608</title>
<polygon fill="lightgrey" stroke="black" points="648,-454.5 547,-454.5 547,-435.5 648,-435.5 648,-454.5"/>
<text text-anchor="middle" x="597.5" y="-442.5" font-family="monospace" font-size="10.00">AccumulateGrad</text>
</g>
<!-- 1643016238608&#45;&gt;1643016239088 -->
<g id="edge10" class="edge">
<title>1643016238608&#45;&gt;1643016239088</title>
<path fill="none" stroke="black" d="M620.3,-435.1C648.25,-424.19 695.85,-405.62 727.97,-393.09"/>
<polygon fill="black" stroke="black" points="729.17,-396.37 737.22,-389.48 726.63,-389.85 729.17,-396.37"/>
</g>
<!-- 1642546728768 -->
<g id="node13" class="node">
<title>1642546728768</title>
<polygon fill="lightblue" stroke="black" points="613,-526 554,-526 554,-496 613,-496 613,-526"/>
<text text-anchor="middle" x="583.5" y="-514" font-family="monospace" font-size="10.00">11.bias</text>
<text text-anchor="middle" x="583.5" y="-503" font-family="monospace" font-size="10.00"> (1024)</text>
</g>
<!-- 1642546728768&#45;&gt;1643016238608 -->
<g id="edge11" class="edge">
<title>1642546728768&#45;&gt;1643016238608</title>
<path fill="none" stroke="black" d="M586.61,-495.8C588.53,-486.99 591.04,-475.55 593.16,-465.86"/>
<polygon fill="black" stroke="black" points="596.52,-466.84 595.24,-456.32 589.69,-465.34 596.52,-466.84"/>
</g>
<!-- 1643016240480 -->
<g id="node14" class="node">
<title>1643016240480</title>
<polygon fill="lightgrey" stroke="black" points="768,-454.5 679,-454.5 679,-435.5 768,-435.5 768,-454.5"/>
<text text-anchor="middle" x="723.5" y="-442.5" font-family="monospace" font-size="10.00">ViewBackward</text>
</g>
<!-- 1643016240480&#45;&gt;1643016239088 -->
<g id="edge12" class="edge">
<title>1643016240480&#45;&gt;1643016239088</title>
<path fill="none" stroke="black" d="M728.78,-435.1C734.4,-425.64 743.44,-410.42 750.59,-398.37"/>
<polygon fill="black" stroke="black" points="753.39,-400.51 755.49,-390.12 747.37,-396.94 753.39,-400.51"/>
</g>
<!-- 1643016240240 -->
<g id="node15" class="node">
<title>1643016240240</title>
<polygon fill="lightgrey" stroke="black" points="816,-520.5 631,-520.5 631,-501.5 816,-501.5 816,-520.5"/>
<text text-anchor="middle" x="723.5" y="-508.5" font-family="monospace" font-size="10.00">MaxPool2DWithIndicesBackward</text>
</g>
<!-- 1643016240240&#45;&gt;1643016240480 -->
<g id="edge13" class="edge">
<title>1643016240240&#45;&gt;1643016240480</title>
<path fill="none" stroke="black" d="M723.5,-501.1C723.5,-492.12 723.5,-477.95 723.5,-466.22"/>
<polygon fill="black" stroke="black" points="727,-466.34 723.5,-456.34 720,-466.34 727,-466.34"/>
</g>
<!-- 1643016239808 -->
<g id="node16" class="node">
<title>1643016239808</title>
<polygon fill="lightgrey" stroke="black" points="771,-586.5 676,-586.5 676,-567.5 771,-567.5 771,-586.5"/>
<text text-anchor="middle" x="723.5" y="-574.5" font-family="monospace" font-size="10.00">ReluBackward0</text>
</g>
<!-- 1643016239808&#45;&gt;1643016240240 -->
<g id="edge14" class="edge">
<title>1643016239808&#45;&gt;1643016240240</title>
<path fill="none" stroke="black" d="M723.5,-567.1C723.5,-558.12 723.5,-543.95 723.5,-532.22"/>
<polygon fill="black" stroke="black" points="727,-532.34 723.5,-522.34 720,-532.34 727,-532.34"/>
</g>
<!-- 1643016240192 -->
<g id="node17" class="node">
<title>1643016240192</title>
<polygon fill="lightgrey" stroke="black" points="768,-647 679,-647 679,-628 768,-628 768,-647"/>
<text text-anchor="middle" x="723.5" y="-635" font-family="monospace" font-size="10.00">AddBackward0</text>
</g>
<!-- 1643016240192&#45;&gt;1643016239808 -->
<g id="edge15" class="edge">
<title>1643016240192&#45;&gt;1643016239808</title>
<path fill="none" stroke="black" d="M723.5,-627.87C723.5,-620 723.5,-608.1 723.5,-597.89"/>
<polygon fill="black" stroke="black" points="727,-598.18 723.5,-588.18 720,-598.18 727,-598.18"/>
</g>
<!-- 1643016237888 -->
<g id="node18" class="node">
<title>1643016237888</title>
<polygon fill="lightgrey" stroke="black" points="733,-702 572,-702 572,-683 733,-683 733,-702"/>
<text text-anchor="middle" x="652.5" y="-690" font-family="monospace" font-size="10.00">CudnnConvolutionBackward</text>
</g>
<!-- 1643016237888&#45;&gt;1643016240192 -->
<g id="edge16" class="edge">
<title>1643016237888&#45;&gt;1643016240192</title>
<path fill="none" stroke="black" d="M664.54,-682.51C674.91,-674.77 690.1,-663.43 702.47,-654.2"/>
<polygon fill="black" stroke="black" points="704.5,-657.05 710.42,-648.26 700.31,-651.44 704.5,-657.05"/>
</g>
<!-- 1643016238896 -->
<g id="node19" class="node">
<title>1643016238896</title>
<polygon fill="lightgrey" stroke="black" points="595,-757 500,-757 500,-738 595,-738 595,-757"/>
<text text-anchor="middle" x="547.5" y="-745" font-family="monospace" font-size="10.00">ReluBackward0</text>
</g>
<!-- 1643016238896&#45;&gt;1643016237888 -->
<g id="edge17" class="edge">
<title>1643016238896&#45;&gt;1643016237888</title>
<path fill="none" stroke="black" d="M565.31,-737.51C581.63,-729.27 606.03,-716.96 624.87,-707.45"/>
<polygon fill="black" stroke="black" points="626.25,-710.67 633.6,-703.04 623.1,-704.42 626.25,-710.67"/>
</g>
<!-- 1643016239568 -->
<g id="node20" class="node">
<title>1643016239568</title>
<polygon fill="lightgrey" stroke="black" points="591,-817.5 502,-817.5 502,-798.5 591,-798.5 591,-817.5"/>
<text text-anchor="middle" x="546.5" y="-805.5" font-family="monospace" font-size="10.00">AddBackward0</text>
</g>
<!-- 1643016239568&#45;&gt;1643016238896 -->
<g id="edge18" class="edge">
<title>1643016239568&#45;&gt;1643016238896</title>
<path fill="none" stroke="black" d="M546.65,-798.37C546.78,-790.5 546.99,-778.6 547.16,-768.39"/>
<polygon fill="black" stroke="black" points="550.65,-768.74 547.33,-758.68 543.66,-768.62 550.65,-768.74"/>
</g>
<!-- 1643016241008 -->
<g id="node21" class="node">
<title>1643016241008</title>
<polygon fill="lightgrey" stroke="black" points="556,-878 395,-878 395,-859 556,-859 556,-878"/>
<text text-anchor="middle" x="475.5" y="-866" font-family="monospace" font-size="10.00">CudnnConvolutionBackward</text>
</g>
<!-- 1643016241008&#45;&gt;1643016239568 -->
<g id="edge19" class="edge">
<title>1643016241008&#45;&gt;1643016239568</title>
<path fill="none" stroke="black" d="M486.28,-858.62C497.02,-849.77 513.75,-835.98 526.85,-825.19"/>
<polygon fill="black" stroke="black" points="528.95,-827.99 534.45,-818.93 524.5,-822.59 528.95,-827.99"/>
</g>
<!-- 1643016238416 -->
<g id="node22" class="node">
<title>1643016238416</title>
<polygon fill="lightgrey" stroke="black" points="419,-933 234,-933 234,-914 419,-914 419,-933"/>
<text text-anchor="middle" x="326.5" y="-921" font-family="monospace" font-size="10.00">MaxPool2DWithIndicesBackward</text>
</g>
<!-- 1643016238416&#45;&gt;1643016241008 -->
<g id="edge20" class="edge">
<title>1643016238416&#45;&gt;1643016241008</title>
<path fill="none" stroke="black" d="M351.78,-913.51C376,-904.89 412.8,-891.8 439.97,-882.14"/>
<polygon fill="black" stroke="black" points="440.92,-885.51 449.17,-878.87 438.58,-878.92 440.92,-885.51"/>
</g>
<!-- 1642546911024 -->
<g id="node23" class="node">
<title>1642546911024</title>
<polygon fill="lightgrey" stroke="black" points="374,-993.5 279,-993.5 279,-974.5 374,-974.5 374,-993.5"/>
<text text-anchor="middle" x="326.5" y="-981.5" font-family="monospace" font-size="10.00">ReluBackward0</text>
</g>
<!-- 1642546911024&#45;&gt;1643016238416 -->
<g id="edge21" class="edge">
<title>1642546911024&#45;&gt;1643016238416</title>
<path fill="none" stroke="black" d="M326.5,-974.37C326.5,-966.5 326.5,-954.6 326.5,-944.39"/>
<polygon fill="black" stroke="black" points="330,-944.68 326.5,-934.68 323,-944.68 330,-944.68"/>
</g>
<!-- 1643016240720 -->
<g id="node24" class="node">
<title>1643016240720</title>
<polygon fill="lightgrey" stroke="black" points="371,-1054 282,-1054 282,-1035 371,-1035 371,-1054"/>
<text text-anchor="middle" x="326.5" y="-1042" font-family="monospace" font-size="10.00">AddBackward0</text>
</g>
<!-- 1643016240720&#45;&gt;1642546911024 -->
<g id="edge22" class="edge">
<title>1643016240720&#45;&gt;1642546911024</title>
<path fill="none" stroke="black" d="M326.5,-1034.87C326.5,-1027 326.5,-1015.1 326.5,-1004.89"/>
<polygon fill="black" stroke="black" points="330,-1005.18 326.5,-995.18 323,-1005.18 330,-1005.18"/>
</g>
<!-- 1642546902640 -->
<g id="node25" class="node">
<title>1642546902640</title>
<polygon fill="lightgrey" stroke="black" points="336,-1109 175,-1109 175,-1090 336,-1090 336,-1109"/>
<text text-anchor="middle" x="255.5" y="-1097" font-family="monospace" font-size="10.00">CudnnConvolutionBackward</text>
</g>
<!-- 1642546902640&#45;&gt;1643016240720 -->
<g id="edge23" class="edge">
<title>1642546902640&#45;&gt;1643016240720</title>
<path fill="none" stroke="black" d="M267.54,-1089.51C277.91,-1081.77 293.1,-1070.43 305.47,-1061.2"/>
<polygon fill="black" stroke="black" points="307.5,-1064.05 313.42,-1055.26 303.31,-1058.44 307.5,-1064.05"/>
</g>
<!-- 1643016134864 -->
<g id="node26" class="node">
<title>1643016134864</title>
<polygon fill="lightgrey" stroke="black" points="199,-1164 104,-1164 104,-1145 199,-1145 199,-1164"/>
<text text-anchor="middle" x="151.5" y="-1152" font-family="monospace" font-size="10.00">ReluBackward0</text>
</g>
<!-- 1643016134864&#45;&gt;1642546902640 -->
<g id="edge24" class="edge">
<title>1643016134864&#45;&gt;1642546902640</title>
<path fill="none" stroke="black" d="M169.14,-1144.51C185.23,-1136.31 209.25,-1124.07 227.87,-1114.58"/>
<polygon fill="black" stroke="black" points="229.45,-1117.7 236.77,-1110.05 226.27,-1111.47 229.45,-1117.7"/>
</g>
<!-- 1643016135008 -->
<g id="node27" class="node">
<title>1643016135008</title>
<polygon fill="lightgrey" stroke="black" points="196,-1224.5 107,-1224.5 107,-1205.5 196,-1205.5 196,-1224.5"/>
<text text-anchor="middle" x="151.5" y="-1212.5" font-family="monospace" font-size="10.00">AddBackward0</text>
</g>
<!-- 1643016135008&#45;&gt;1643016134864 -->
<g id="edge25" class="edge">
<title>1643016135008&#45;&gt;1643016134864</title>
<path fill="none" stroke="black" d="M151.5,-1205.37C151.5,-1197.5 151.5,-1185.6 151.5,-1175.39"/>
<polygon fill="black" stroke="black" points="155,-1175.68 151.5,-1165.68 148,-1175.68 155,-1175.68"/>
</g>
<!-- 1643016135104 -->
<g id="node28" class="node">
<title>1643016135104</title>
<polygon fill="lightgrey" stroke="black" points="161,-1285 0,-1285 0,-1266 161,-1266 161,-1285"/>
<text text-anchor="middle" x="80.5" y="-1273" font-family="monospace" font-size="10.00">CudnnConvolutionBackward</text>
</g>
<!-- 1643016135104&#45;&gt;1643016135008 -->
<g id="edge26" class="edge">
<title>1643016135104&#45;&gt;1643016135008</title>
<path fill="none" stroke="black" d="M91.28,-1265.62C102.02,-1256.77 118.75,-1242.98 131.85,-1232.19"/>
<polygon fill="black" stroke="black" points="133.95,-1234.99 139.45,-1225.93 129.5,-1229.59 133.95,-1234.99"/>
</g>
<!-- 1643016135248 -->
<g id="node29" class="node">
<title>1643016135248</title>
<polygon fill="lightgrey" stroke="black" points="131,-1340 30,-1340 30,-1321 131,-1321 131,-1340"/>
<text text-anchor="middle" x="80.5" y="-1328" font-family="monospace" font-size="10.00">AccumulateGrad</text>
</g>
<!-- 1643016135248&#45;&gt;1643016135104 -->
<g id="edge27" class="edge">
<title>1643016135248&#45;&gt;1643016135104</title>
<path fill="none" stroke="black" d="M80.5,-1320.75C80.5,-1314.27 80.5,-1305.16 80.5,-1296.9"/>
<polygon fill="black" stroke="black" points="84,-1296.96 80.5,-1286.96 77,-1296.96 84,-1296.96"/>
</g>
<!-- 1642546799488 -->
<g id="node30" class="node">
<title>1642546799488</title>
<polygon fill="lightblue" stroke="black" points="131,-1406 30,-1406 30,-1376 131,-1376 131,-1406"/>
<text text-anchor="middle" x="80.5" y="-1394" font-family="monospace" font-size="10.00">0.weight</text>
<text text-anchor="middle" x="80.5" y="-1383" font-family="monospace" font-size="10.00"> (16, 1, 3, 3)</text>
</g>
<!-- 1642546799488&#45;&gt;1643016135248 -->
<g id="edge28" class="edge">
<title>1642546799488&#45;&gt;1643016135248</title>
<path fill="none" stroke="black" d="M80.5,-1375.54C80.5,-1368.34 80.5,-1359.53 80.5,-1351.68"/>
<polygon fill="black" stroke="black" points="84,-1351.69 80.5,-1341.69 77,-1351.69 84,-1351.69"/>
</g>
<!-- 1643016135056 -->
<g id="node31" class="node">
<title>1643016135056</title>
<polygon fill="lightgrey" stroke="black" points="268,-1285 179,-1285 179,-1266 268,-1266 268,-1285"/>
<text text-anchor="middle" x="223.5" y="-1273" font-family="monospace" font-size="10.00">ViewBackward</text>
</g>
<!-- 1643016135056&#45;&gt;1643016135008 -->
<g id="edge29" class="edge">
<title>1643016135056&#45;&gt;1643016135008</title>
<path fill="none" stroke="black" d="M212.56,-1265.62C201.68,-1256.77 184.71,-1242.98 171.42,-1232.19"/>
<polygon fill="black" stroke="black" points="173.68,-1229.51 163.71,-1225.92 169.27,-1234.95 173.68,-1229.51"/>
</g>
<!-- 1643016135296 -->
<g id="node32" class="node">
<title>1643016135296</title>
<polygon fill="lightgrey" stroke="black" points="274,-1340 173,-1340 173,-1321 274,-1321 274,-1340"/>
<text text-anchor="middle" x="223.5" y="-1328" font-family="monospace" font-size="10.00">AccumulateGrad</text>
</g>
<!-- 1643016135296&#45;&gt;1643016135056 -->
<g id="edge30" class="edge">
<title>1643016135296&#45;&gt;1643016135056</title>
<path fill="none" stroke="black" d="M223.5,-1320.75C223.5,-1314.27 223.5,-1305.16 223.5,-1296.9"/>
<polygon fill="black" stroke="black" points="227,-1296.96 223.5,-1286.96 220,-1296.96 227,-1296.96"/>
</g>
<!-- 1642546800576 -->
<g id="node33" class="node">
<title>1642546800576</title>
<polygon fill="lightblue" stroke="black" points="250.5,-1406 196.5,-1406 196.5,-1376 250.5,-1376 250.5,-1406"/>
<text text-anchor="middle" x="223.5" y="-1394" font-family="monospace" font-size="10.00">0.bias</text>
<text text-anchor="middle" x="223.5" y="-1383" font-family="monospace" font-size="10.00"> (16)</text>
</g>
<!-- 1642546800576&#45;&gt;1643016135296 -->
<g id="edge31" class="edge">
<title>1642546800576&#45;&gt;1643016135296</title>
<path fill="none" stroke="black" d="M223.5,-1375.54C223.5,-1368.34 223.5,-1359.53 223.5,-1351.68"/>
<polygon fill="black" stroke="black" points="227,-1351.69 223.5,-1341.69 220,-1351.69 227,-1351.69"/>
</g>
<!-- 1643016134816 -->
<g id="node34" class="node">
<title>1643016134816</title>
<polygon fill="lightgrey" stroke="black" points="318,-1164 217,-1164 217,-1145 318,-1145 318,-1164"/>
<text text-anchor="middle" x="267.5" y="-1152" font-family="monospace" font-size="10.00">AccumulateGrad</text>
</g>
<!-- 1643016134816&#45;&gt;1642546902640 -->
<g id="edge32" class="edge">
<title>1643016134816&#45;&gt;1642546902640</title>
<path fill="none" stroke="black" d="M265.52,-1144.75C264.03,-1138.19 261.94,-1128.95 260.05,-1120.6"/>
<polygon fill="black" stroke="black" points="263.48,-1119.9 257.86,-1110.92 256.65,-1121.44 263.48,-1119.9"/>
</g>
<!-- 1642546855104 -->
<g id="node35" class="node">
<title>1642546855104</title>
<polygon fill="lightblue" stroke="black" points="321,-1230 214,-1230 214,-1200 321,-1200 321,-1230"/>
<text text-anchor="middle" x="267.5" y="-1218" font-family="monospace" font-size="10.00">2.weight</text>
<text text-anchor="middle" x="267.5" y="-1207" font-family="monospace" font-size="10.00"> (32, 16, 3, 3)</text>
</g>
<!-- 1642546855104&#45;&gt;1643016134816 -->
<g id="edge33" class="edge">
<title>1642546855104&#45;&gt;1643016134816</title>
<path fill="none" stroke="black" d="M267.5,-1199.54C267.5,-1192.34 267.5,-1183.53 267.5,-1175.68"/>
<polygon fill="black" stroke="black" points="271,-1175.69 267.5,-1165.69 264,-1175.69 271,-1175.69"/>
</g>
<!-- 1642546901584 -->
<g id="node36" class="node">
<title>1642546901584</title>
<polygon fill="lightgrey" stroke="black" points="443,-1109 354,-1109 354,-1090 443,-1090 443,-1109"/>
<text text-anchor="middle" x="398.5" y="-1097" font-family="monospace" font-size="10.00">ViewBackward</text>
</g>
<!-- 1642546901584&#45;&gt;1643016240720 -->
<g id="edge34" class="edge">
<title>1642546901584&#45;&gt;1643016240720</title>
<path fill="none" stroke="black" d="M386.29,-1089.51C375.67,-1081.7 360.06,-1070.21 347.46,-1060.93"/>
<polygon fill="black" stroke="black" points="349.88,-1058.36 339.75,-1055.26 345.73,-1064 349.88,-1058.36"/>
</g>
<!-- 1643016134912 -->
<g id="node37" class="node">
<title>1643016134912</title>
<polygon fill="lightgrey" stroke="black" points="449,-1164 348,-1164 348,-1145 449,-1145 449,-1164"/>
<text text-anchor="middle" x="398.5" y="-1152" font-family="monospace" font-size="10.00">AccumulateGrad</text>
</g>
<!-- 1643016134912&#45;&gt;1642546901584 -->
<g id="edge35" class="edge">
<title>1643016134912&#45;&gt;1642546901584</title>
<path fill="none" stroke="black" d="M398.5,-1144.75C398.5,-1138.27 398.5,-1129.16 398.5,-1120.9"/>
<polygon fill="black" stroke="black" points="402,-1120.96 398.5,-1110.96 395,-1120.96 402,-1120.96"/>
</g>
<!-- 1642546854528 -->
<g id="node38" class="node">
<title>1642546854528</title>
<polygon fill="lightblue" stroke="black" points="425.5,-1230 371.5,-1230 371.5,-1200 425.5,-1200 425.5,-1230"/>
<text text-anchor="middle" x="398.5" y="-1218" font-family="monospace" font-size="10.00">2.bias</text>
<text text-anchor="middle" x="398.5" y="-1207" font-family="monospace" font-size="10.00"> (32)</text>
</g>
<!-- 1642546854528&#45;&gt;1643016134912 -->
<g id="edge36" class="edge">
<title>1642546854528&#45;&gt;1643016134912</title>
<path fill="none" stroke="black" d="M398.5,-1199.54C398.5,-1192.34 398.5,-1183.53 398.5,-1175.68"/>
<polygon fill="black" stroke="black" points="402,-1175.69 398.5,-1165.69 395,-1175.69 402,-1175.69"/>
</g>
<!-- 1643016238464 -->
<g id="node39" class="node">
<title>1643016238464</title>
<polygon fill="lightgrey" stroke="black" points="538,-933 437,-933 437,-914 538,-914 538,-933"/>
<text text-anchor="middle" x="487.5" y="-921" font-family="monospace" font-size="10.00">AccumulateGrad</text>
</g>
<!-- 1643016238464&#45;&gt;1643016241008 -->
<g id="edge37" class="edge">
<title>1643016238464&#45;&gt;1643016241008</title>
<path fill="none" stroke="black" d="M485.52,-913.75C484.03,-907.19 481.94,-897.95 480.05,-889.6"/>
<polygon fill="black" stroke="black" points="483.48,-888.9 477.86,-879.92 476.65,-890.44 483.48,-888.9"/>
</g>
<!-- 1642546801984 -->
<g id="node40" class="node">
<title>1642546801984</title>
<polygon fill="lightblue" stroke="black" points="541,-999 434,-999 434,-969 541,-969 541,-999"/>
<text text-anchor="middle" x="487.5" y="-987" font-family="monospace" font-size="10.00">5.weight</text>
<text text-anchor="middle" x="487.5" y="-976" font-family="monospace" font-size="10.00"> (64, 32, 3, 3)</text>
</g>
<!-- 1642546801984&#45;&gt;1643016238464 -->
<g id="edge38" class="edge">
<title>1642546801984&#45;&gt;1643016238464</title>
<path fill="none" stroke="black" d="M487.5,-968.54C487.5,-961.34 487.5,-952.53 487.5,-944.68"/>
<polygon fill="black" stroke="black" points="491,-944.69 487.5,-934.69 484,-944.69 491,-944.69"/>
</g>
<!-- 1643016238800 -->
<g id="node41" class="node">
<title>1643016238800</title>
<polygon fill="lightgrey" stroke="black" points="663,-878 574,-878 574,-859 663,-859 663,-878"/>
<text text-anchor="middle" x="618.5" y="-866" font-family="monospace" font-size="10.00">ViewBackward</text>
</g>
<!-- 1643016238800&#45;&gt;1643016239568 -->
<g id="edge39" class="edge">
<title>1643016238800&#45;&gt;1643016239568</title>
<path fill="none" stroke="black" d="M607.56,-858.62C596.68,-849.77 579.71,-835.98 566.42,-825.19"/>
<polygon fill="black" stroke="black" points="568.68,-822.51 558.71,-818.92 564.27,-827.95 568.68,-822.51"/>
</g>
<!-- 1642546910880 -->
<g id="node42" class="node">
<title>1642546910880</title>
<polygon fill="lightgrey" stroke="black" points="669,-933 568,-933 568,-914 669,-914 669,-933"/>
<text text-anchor="middle" x="618.5" y="-921" font-family="monospace" font-size="10.00">AccumulateGrad</text>
</g>
<!-- 1642546910880&#45;&gt;1643016238800 -->
<g id="edge40" class="edge">
<title>1642546910880&#45;&gt;1643016238800</title>
<path fill="none" stroke="black" d="M618.5,-913.75C618.5,-907.27 618.5,-898.16 618.5,-889.9"/>
<polygon fill="black" stroke="black" points="622,-889.96 618.5,-879.96 615,-889.96 622,-889.96"/>
</g>
<!-- 1642546686976 -->
<g id="node43" class="node">
<title>1642546686976</title>
<polygon fill="lightblue" stroke="black" points="645.5,-999 591.5,-999 591.5,-969 645.5,-969 645.5,-999"/>
<text text-anchor="middle" x="618.5" y="-987" font-family="monospace" font-size="10.00">5.bias</text>
<text text-anchor="middle" x="618.5" y="-976" font-family="monospace" font-size="10.00"> (64)</text>
</g>
<!-- 1642546686976&#45;&gt;1642546910880 -->
<g id="edge41" class="edge">
<title>1642546686976&#45;&gt;1642546910880</title>
<path fill="none" stroke="black" d="M618.5,-968.54C618.5,-961.34 618.5,-952.53 618.5,-944.68"/>
<polygon fill="black" stroke="black" points="622,-944.69 618.5,-934.69 615,-944.69 622,-944.69"/>
</g>
<!-- 1643016240528 -->
<g id="node44" class="node">
<title>1643016240528</title>
<polygon fill="lightgrey" stroke="black" points="715,-757 614,-757 614,-738 715,-738 715,-757"/>
<text text-anchor="middle" x="664.5" y="-745" font-family="monospace" font-size="10.00">AccumulateGrad</text>
</g>
<!-- 1643016240528&#45;&gt;1643016237888 -->
<g id="edge42" class="edge">
<title>1643016240528&#45;&gt;1643016237888</title>
<path fill="none" stroke="black" d="M662.52,-737.75C661.03,-731.19 658.94,-721.95 657.05,-713.6"/>
<polygon fill="black" stroke="black" points="660.48,-712.9 654.86,-703.92 653.65,-714.44 660.48,-712.9"/>
</g>
<!-- 1642546686144 -->
<g id="node45" class="node">
<title>1642546686144</title>
<polygon fill="lightblue" stroke="black" points="722,-823 609,-823 609,-793 722,-793 722,-823"/>
<text text-anchor="middle" x="665.5" y="-811" font-family="monospace" font-size="10.00">7.weight</text>
<text text-anchor="middle" x="665.5" y="-800" font-family="monospace" font-size="10.00"> (128, 64, 3, 3)</text>
</g>
<!-- 1642546686144&#45;&gt;1643016240528 -->
<g id="edge43" class="edge">
<title>1642546686144&#45;&gt;1643016240528</title>
<path fill="none" stroke="black" d="M665.25,-792.54C665.13,-785.34 664.98,-776.53 664.84,-768.68"/>
<polygon fill="black" stroke="black" points="668.34,-768.63 664.67,-758.69 661.35,-768.75 668.34,-768.63"/>
</g>
<!-- 1643016240048 -->
<g id="node46" class="node">
<title>1643016240048</title>
<polygon fill="lightgrey" stroke="black" points="840,-702 751,-702 751,-683 840,-683 840,-702"/>
<text text-anchor="middle" x="795.5" y="-690" font-family="monospace" font-size="10.00">ViewBackward</text>
</g>
<!-- 1643016240048&#45;&gt;1643016240192 -->
<g id="edge44" class="edge">
<title>1643016240048&#45;&gt;1643016240192</title>
<path fill="none" stroke="black" d="M783.29,-682.51C772.67,-674.7 757.06,-663.21 744.46,-653.93"/>
<polygon fill="black" stroke="black" points="746.88,-651.36 736.75,-648.26 742.73,-657 746.88,-651.36"/>
</g>
<!-- 1642546904896 -->
<g id="node47" class="node">
<title>1642546904896</title>
<polygon fill="lightgrey" stroke="black" points="846,-757 745,-757 745,-738 846,-738 846,-757"/>
<text text-anchor="middle" x="795.5" y="-745" font-family="monospace" font-size="10.00">AccumulateGrad</text>
</g>
<!-- 1642546904896&#45;&gt;1643016240048 -->
<g id="edge45" class="edge">
<title>1642546904896&#45;&gt;1643016240048</title>
<path fill="none" stroke="black" d="M795.5,-737.75C795.5,-731.27 795.5,-722.16 795.5,-713.9"/>
<polygon fill="black" stroke="black" points="799,-713.96 795.5,-703.96 792,-713.96 799,-713.96"/>
</g>
<!-- 1642546727232 -->
<g id="node48" class="node">
<title>1642546727232</title>
<polygon fill="lightblue" stroke="black" points="822.5,-823 768.5,-823 768.5,-793 822.5,-793 822.5,-823"/>
<text text-anchor="middle" x="795.5" y="-811" font-family="monospace" font-size="10.00">7.bias</text>
<text text-anchor="middle" x="795.5" y="-800" font-family="monospace" font-size="10.00"> (128)</text>
</g>
<!-- 1642546727232&#45;&gt;1642546904896 -->
<g id="edge46" class="edge">
<title>1642546727232&#45;&gt;1642546904896</title>
<path fill="none" stroke="black" d="M795.5,-792.54C795.5,-785.34 795.5,-776.53 795.5,-768.68"/>
<polygon fill="black" stroke="black" points="799,-768.69 795.5,-758.69 792,-768.69 799,-768.69"/>
</g>
<!-- 1643016237984 -->
<g id="node49" class="node">
<title>1643016237984</title>
<polygon fill="lightgrey" stroke="black" points="857,-454.5 786,-454.5 786,-435.5 857,-435.5 857,-454.5"/>
<text text-anchor="middle" x="821.5" y="-442.5" font-family="monospace" font-size="10.00">TBackward</text>
</g>
<!-- 1643016237984&#45;&gt;1643016239088 -->
<g id="edge47" class="edge">
<title>1643016237984&#45;&gt;1643016239088</title>
<path fill="none" stroke="black" d="M813.16,-435.1C803.93,-425.26 788.86,-409.18 777.37,-396.93"/>
<polygon fill="black" stroke="black" points="780.2,-394.83 770.81,-389.93 775.09,-399.62 780.2,-394.83"/>
</g>
<!-- 1643016239760 -->
<g id="node50" class="node">
<title>1643016239760</title>
<polygon fill="lightgrey" stroke="black" points="935,-520.5 834,-520.5 834,-501.5 935,-501.5 935,-520.5"/>
<text text-anchor="middle" x="884.5" y="-508.5" font-family="monospace" font-size="10.00">AccumulateGrad</text>
</g>
<!-- 1643016239760&#45;&gt;1643016237984 -->
<g id="edge48" class="edge">
<title>1643016239760&#45;&gt;1643016237984</title>
<path fill="none" stroke="black" d="M875.74,-501.1C866.05,-491.26 850.23,-475.18 838.16,-462.93"/>
<polygon fill="black" stroke="black" points="840.76,-460.57 831.25,-455.9 835.77,-465.48 840.76,-460.57"/>
</g>
<!-- 1638972019264 -->
<g id="node51" class="node">
<title>1638972019264</title>
<polygon fill="lightblue" stroke="black" points="932,-592 837,-592 837,-562 932,-562 932,-592"/>
<text text-anchor="middle" x="884.5" y="-580" font-family="monospace" font-size="10.00">11.weight</text>
<text text-anchor="middle" x="884.5" y="-569" font-family="monospace" font-size="10.00"> (1024, 6272)</text>
</g>
<!-- 1638972019264&#45;&gt;1643016239760 -->
<g id="edge49" class="edge">
<title>1638972019264&#45;&gt;1643016239760</title>
<path fill="none" stroke="black" d="M884.5,-561.8C884.5,-553.09 884.5,-541.81 884.5,-532.18"/>
<polygon fill="black" stroke="black" points="888,-532.36 884.5,-522.36 881,-532.36 888,-532.36"/>
</g>
<!-- 1643016238848 -->
<g id="node52" class="node">
<title>1643016238848</title>
<polygon fill="lightgrey" stroke="black" points="907,-322.5 836,-322.5 836,-303.5 907,-303.5 907,-322.5"/>
<text text-anchor="middle" x="871.5" y="-310.5" font-family="monospace" font-size="10.00">TBackward</text>
</g>
<!-- 1643016238848&#45;&gt;1643016240816 -->
<g id="edge50" class="edge">
<title>1643016238848&#45;&gt;1643016240816</title>
<path fill="none" stroke="black" d="M862.6,-303.1C852.76,-293.26 836.68,-277.18 824.43,-264.93"/>
<polygon fill="black" stroke="black" points="826.94,-262.49 817.39,-257.89 821.99,-267.44 826.94,-262.49"/>
</g>
<!-- 1643016239952 -->
<g id="node53" class="node">
<title>1643016239952</title>
<polygon fill="lightgrey" stroke="black" points="931,-388.5 830,-388.5 830,-369.5 931,-369.5 931,-388.5"/>
<text text-anchor="middle" x="880.5" y="-376.5" font-family="monospace" font-size="10.00">AccumulateGrad</text>
</g>
<!-- 1643016239952&#45;&gt;1643016238848 -->
<g id="edge51" class="edge">
<title>1643016239952&#45;&gt;1643016238848</title>
<path fill="none" stroke="black" d="M879.25,-369.1C877.99,-360.12 875.99,-345.95 874.34,-334.22"/>
<polygon fill="black" stroke="black" points="877.81,-333.74 872.95,-324.32 870.88,-334.71 877.81,-333.74"/>
</g>
<!-- 1642546725056 -->
<g id="node54" class="node">
<title>1642546725056</title>
<polygon fill="lightblue" stroke="black" points="964,-460 875,-460 875,-430 964,-430 964,-460"/>
<text text-anchor="middle" x="919.5" y="-448" font-family="monospace" font-size="10.00">13.weight</text>
<text text-anchor="middle" x="919.5" y="-437" font-family="monospace" font-size="10.00"> (512, 1024)</text>
</g>
<!-- 1642546725056&#45;&gt;1643016239952 -->
<g id="edge52" class="edge">
<title>1642546725056&#45;&gt;1643016239952</title>
<path fill="none" stroke="black" d="M910.84,-429.8C905.24,-420.6 897.89,-408.53 891.82,-398.58"/>
<polygon fill="black" stroke="black" points="894.87,-396.85 886.68,-390.14 888.89,-400.5 894.87,-396.85"/>
</g>
<!-- 1643016240864 -->
<g id="node55" class="node">
<title>1643016240864</title>
<polygon fill="lightgrey" stroke="black" points="958,-196 887,-196 887,-177 958,-177 958,-196"/>
<text text-anchor="middle" x="922.5" y="-184" font-family="monospace" font-size="10.00">TBackward</text>
</g>
<!-- 1643016240864&#45;&gt;1643016240096 -->
<g id="edge53" class="edge">
<title>1643016240864&#45;&gt;1643016240096</title>
<path fill="none" stroke="black" d="M903.84,-176.51C886.67,-168.24 860.95,-155.84 841.17,-146.31"/>
<polygon fill="black" stroke="black" points="842.78,-143.2 832.25,-142.01 839.74,-149.51 842.78,-143.2"/>
</g>
<!-- 1643016240000 -->
<g id="node56" class="node">
<title>1643016240000</title>
<polygon fill="lightgrey" stroke="black" points="977,-256.5 876,-256.5 876,-237.5 977,-237.5 977,-256.5"/>
<text text-anchor="middle" x="926.5" y="-244.5" font-family="monospace" font-size="10.00">AccumulateGrad</text>
</g>
<!-- 1643016240000&#45;&gt;1643016240864 -->
<g id="edge54" class="edge">
<title>1643016240000&#45;&gt;1643016240864</title>
<path fill="none" stroke="black" d="M925.91,-237.37C925.37,-229.5 924.56,-217.6 923.86,-207.39"/>
<polygon fill="black" stroke="black" points="927.37,-207.42 923.2,-197.68 920.39,-207.89 927.37,-207.42"/>
</g>
<!-- 1642546739584 -->
<g id="node57" class="node">
<title>1642546739584</title>
<polygon fill="lightblue" stroke="black" points="1002,-328 925,-328 925,-298 1002,-298 1002,-328"/>
<text text-anchor="middle" x="963.5" y="-316" font-family="monospace" font-size="10.00">15.weight</text>
<text text-anchor="middle" x="963.5" y="-305" font-family="monospace" font-size="10.00"> (10, 512)</text>
</g>
<!-- 1642546739584&#45;&gt;1643016240000 -->
<g id="edge55" class="edge">
<title>1642546739584&#45;&gt;1643016240000</title>
<path fill="none" stroke="black" d="M955.29,-297.8C949.97,-288.6 942.99,-276.53 937.24,-266.58"/>
<polygon fill="black" stroke="black" points="940.41,-265.06 932.37,-258.15 934.35,-268.56 940.41,-265.06"/>
</g>
</g>
</svg>
