<?xml version="1.0" encoding="UTF-8" standalone="no"?>
<!DOCTYPE svg PUBLIC "-//W3C//DTD SVG 1.1//EN"
 "http://www.w3.org/Graphics/SVG/1.1/DTD/svg11.dtd">
<!-- Generated by graphviz version 7.1.0 (20230121.1956)
 -->
<!-- Pages: 1 -->
<svg width="918pt" height="829pt"
 viewBox="0.00 0.00 918.00 829.07" xmlns="http://www.w3.org/2000/svg" xmlns:xlink="http://www.w3.org/1999/xlink">
<g id="graph0" class="graph" transform="scale(0.734988 0.734988) rotate(0) translate(4 1124)">
<polygon fill="white" stroke="none" points="-4,4 -4,-1124 1245,-1124 1245,4 -4,4"/>
<!-- 2404675540928 -->
<g id="node1" class="node">
<title>2404675540928</title>
<polygon fill="#caff70" stroke="black" points="1140.5,-31 1086.5,-31 1086.5,0 1140.5,0 1140.5,-31"/>
<text text-anchor="middle" x="1113.5" y="-7" font-family="monospace" font-size="10.00"> ()</text>
</g>
<!-- 2404666101568 -->
<g id="node2" class="node">
<title>2404666101568</title>
<polygon fill="lightgrey" stroke="black" points="1161,-86 1066,-86 1066,-67 1161,-67 1161,-86"/>
<text text-anchor="middle" x="1113.5" y="-74" font-family="monospace" font-size="10.00">MeanBackward0</text>
</g>
<!-- 2404666101568&#45;&gt;2404675540928 -->
<g id="edge42" class="edge">
<title>2404666101568&#45;&gt;2404675540928</title>
<path fill="none" stroke="black" d="M1113.5,-66.54C1113.5,-60.07 1113.5,-50.98 1113.5,-42.32"/>
<polygon fill="black" stroke="black" points="1117,-42.58 1113.5,-32.58 1110,-42.58 1117,-42.58"/>
</g>
<!-- 2404666101424 -->
<g id="node3" class="node">
<title>2404666101424</title>
<polygon fill="lightgrey" stroke="black" points="1167,-141 1060,-141 1060,-122 1167,-122 1167,-141"/>
<text text-anchor="middle" x="1113.5" y="-129" font-family="monospace" font-size="10.00">SigmoidBackward</text>
</g>
<!-- 2404666101424&#45;&gt;2404666101568 -->
<g id="edge1" class="edge">
<title>2404666101424&#45;&gt;2404666101568</title>
<path fill="none" stroke="black" d="M1113.5,-121.75C1113.5,-115.27 1113.5,-106.16 1113.5,-97.9"/>
<polygon fill="black" stroke="black" points="1117,-97.96 1113.5,-87.96 1110,-97.96 1117,-97.96"/>
</g>
<!-- 2404666101616 -->
<g id="node4" class="node">
<title>2404666101616</title>
<polygon fill="lightgrey" stroke="black" points="1158,-196 1069,-196 1069,-177 1158,-177 1158,-196"/>
<text text-anchor="middle" x="1113.5" y="-184" font-family="monospace" font-size="10.00">ViewBackward</text>
</g>
<!-- 2404666101616&#45;&gt;2404666101424 -->
<g id="edge2" class="edge">
<title>2404666101616&#45;&gt;2404666101424</title>
<path fill="none" stroke="black" d="M1113.5,-176.75C1113.5,-170.27 1113.5,-161.16 1113.5,-152.9"/>
<polygon fill="black" stroke="black" points="1117,-152.96 1113.5,-142.96 1110,-152.96 1117,-152.96"/>
</g>
<!-- 2404666101664 -->
<g id="node5" class="node">
<title>2404666101664</title>
<polygon fill="lightgrey" stroke="black" points="1194,-251 1033,-251 1033,-232 1194,-232 1194,-251"/>
<text text-anchor="middle" x="1113.5" y="-239" font-family="monospace" font-size="10.00">CudnnConvolutionBackward</text>
</g>
<!-- 2404666101664&#45;&gt;2404666101616 -->
<g id="edge3" class="edge">
<title>2404666101664&#45;&gt;2404666101616</title>
<path fill="none" stroke="black" d="M1113.5,-231.75C1113.5,-225.27 1113.5,-216.16 1113.5,-207.9"/>
<polygon fill="black" stroke="black" points="1117,-207.96 1113.5,-197.96 1110,-207.96 1117,-207.96"/>
</g>
<!-- 2404666101280 -->
<g id="node6" class="node">
<title>2404666101280</title>
<polygon fill="lightgrey" stroke="black" points="1111,-306 986,-306 986,-287 1111,-287 1111,-306"/>
<text text-anchor="middle" x="1048.5" y="-294" font-family="monospace" font-size="10.00">LeakyReluBackward1</text>
</g>
<!-- 2404666101280&#45;&gt;2404666101664 -->
<g id="edge4" class="edge">
<title>2404666101280&#45;&gt;2404666101664</title>
<path fill="none" stroke="black" d="M1059.53,-286.51C1068.92,-278.85 1082.65,-267.66 1093.91,-258.47"/>
<polygon fill="black" stroke="black" points="1095.93,-261.35 1101.46,-252.31 1091.5,-255.92 1095.93,-261.35"/>
</g>
<!-- 2404666101136 -->
<g id="node7" class="node">
<title>2404666101136</title>
<polygon fill="lightgrey" stroke="black" points="1116,-366.5 967,-366.5 967,-347.5 1116,-347.5 1116,-366.5"/>
<text text-anchor="middle" x="1041.5" y="-354.5" font-family="monospace" font-size="10.00">CudnnBatchNormBackward</text>
</g>
<!-- 2404666101136&#45;&gt;2404666101280 -->
<g id="edge5" class="edge">
<title>2404666101136&#45;&gt;2404666101280</title>
<path fill="none" stroke="black" d="M1042.53,-347.37C1043.47,-339.5 1044.9,-327.6 1046.12,-317.39"/>
<polygon fill="black" stroke="black" points="1049.57,-318.02 1047.28,-307.67 1042.62,-317.18 1049.57,-318.02"/>
</g>
<!-- 2404666100896 -->
<g id="node8" class="node">
<title>2404666100896</title>
<polygon fill="lightgrey" stroke="black" points="973,-427 812,-427 812,-408 973,-408 973,-427"/>
<text text-anchor="middle" x="892.5" y="-415" font-family="monospace" font-size="10.00">CudnnConvolutionBackward</text>
</g>
<!-- 2404666100896&#45;&gt;2404666101136 -->
<g id="edge6" class="edge">
<title>2404666100896&#45;&gt;2404666101136</title>
<path fill="none" stroke="black" d="M915.13,-407.62C939.85,-397.91 979.71,-382.26 1008.04,-371.14"/>
<polygon fill="black" stroke="black" points="1009.22,-374.43 1017.25,-367.52 1006.66,-367.92 1009.22,-374.43"/>
</g>
<!-- 2404666100704 -->
<g id="node9" class="node">
<title>2404666100704</title>
<polygon fill="lightgrey" stroke="black" points="842,-487.5 717,-487.5 717,-468.5 842,-468.5 842,-487.5"/>
<text text-anchor="middle" x="779.5" y="-475.5" font-family="monospace" font-size="10.00">LeakyReluBackward1</text>
</g>
<!-- 2404666100704&#45;&gt;2404666100896 -->
<g id="edge7" class="edge">
<title>2404666100704&#45;&gt;2404666100896</title>
<path fill="none" stroke="black" d="M796.66,-468.12C814.83,-458.71 843.78,-443.72 865.11,-432.68"/>
<polygon fill="black" stroke="black" points="866.56,-435.87 873.83,-428.16 863.34,-429.65 866.56,-435.87"/>
</g>
<!-- 2404666100464 -->
<g id="node10" class="node">
<title>2404666100464</title>
<polygon fill="lightgrey" stroke="black" points="844,-553.5 695,-553.5 695,-534.5 844,-534.5 844,-553.5"/>
<text text-anchor="middle" x="769.5" y="-541.5" font-family="monospace" font-size="10.00">CudnnBatchNormBackward</text>
</g>
<!-- 2404666100464&#45;&gt;2404666100704 -->
<g id="edge8" class="edge">
<title>2404666100464&#45;&gt;2404666100704</title>
<path fill="none" stroke="black" d="M770.89,-534.1C772.31,-525.03 774.56,-510.64 776.4,-498.85"/>
<polygon fill="black" stroke="black" points="779.8,-499.74 777.89,-489.32 772.89,-498.66 779.8,-499.74"/>
</g>
<!-- 2404666100368 -->
<g id="node11" class="node">
<title>2404666100368</title>
<polygon fill="lightgrey" stroke="black" points="701,-614 540,-614 540,-595 701,-595 701,-614"/>
<text text-anchor="middle" x="620.5" y="-602" font-family="monospace" font-size="10.00">CudnnConvolutionBackward</text>
</g>
<!-- 2404666100368&#45;&gt;2404666100464 -->
<g id="edge9" class="edge">
<title>2404666100368&#45;&gt;2404666100464</title>
<path fill="none" stroke="black" d="M643.13,-594.62C667.85,-584.91 707.71,-569.26 736.04,-558.14"/>
<polygon fill="black" stroke="black" points="737.22,-561.43 745.25,-554.52 734.66,-554.92 737.22,-561.43"/>
</g>
<!-- 2404666100128 -->
<g id="node12" class="node">
<title>2404666100128</title>
<polygon fill="lightgrey" stroke="black" points="571,-674.5 446,-674.5 446,-655.5 571,-655.5 571,-674.5"/>
<text text-anchor="middle" x="508.5" y="-662.5" font-family="monospace" font-size="10.00">LeakyReluBackward1</text>
</g>
<!-- 2404666100128&#45;&gt;2404666100368 -->
<g id="edge10" class="edge">
<title>2404666100128&#45;&gt;2404666100368</title>
<path fill="none" stroke="black" d="M525.51,-655.12C543.52,-645.71 572.21,-630.72 593.35,-619.68"/>
<polygon fill="black" stroke="black" points="594.74,-622.9 601.99,-615.17 591.5,-616.7 594.74,-622.9"/>
</g>
<!-- 2404666261664 -->
<g id="node13" class="node">
<title>2404666261664</title>
<polygon fill="lightgrey" stroke="black" points="573,-740.5 424,-740.5 424,-721.5 573,-721.5 573,-740.5"/>
<text text-anchor="middle" x="498.5" y="-728.5" font-family="monospace" font-size="10.00">CudnnBatchNormBackward</text>
</g>
<!-- 2404666261664&#45;&gt;2404666100128 -->
<g id="edge11" class="edge">
<title>2404666261664&#45;&gt;2404666100128</title>
<path fill="none" stroke="black" d="M499.89,-721.1C501.31,-712.03 503.56,-697.64 505.4,-685.85"/>
<polygon fill="black" stroke="black" points="508.8,-686.74 506.89,-676.32 501.89,-685.66 508.8,-686.74"/>
</g>
<!-- 2404636270800 -->
<g id="node14" class="node">
<title>2404636270800</title>
<polygon fill="lightgrey" stroke="black" points="430,-801 269,-801 269,-782 430,-782 430,-801"/>
<text text-anchor="middle" x="349.5" y="-789" font-family="monospace" font-size="10.00">CudnnConvolutionBackward</text>
</g>
<!-- 2404636270800&#45;&gt;2404666261664 -->
<g id="edge12" class="edge">
<title>2404636270800&#45;&gt;2404666261664</title>
<path fill="none" stroke="black" d="M372.13,-781.62C396.85,-771.91 436.71,-756.26 465.04,-745.14"/>
<polygon fill="black" stroke="black" points="466.22,-748.43 474.25,-741.52 463.66,-741.92 466.22,-748.43"/>
</g>
<!-- 2404636270992 -->
<g id="node15" class="node">
<title>2404636270992</title>
<polygon fill="lightgrey" stroke="black" points="301,-861.5 176,-861.5 176,-842.5 301,-842.5 301,-861.5"/>
<text text-anchor="middle" x="238.5" y="-849.5" font-family="monospace" font-size="10.00">LeakyReluBackward1</text>
</g>
<!-- 2404636270992&#45;&gt;2404636270800 -->
<g id="edge13" class="edge">
<title>2404636270992&#45;&gt;2404636270800</title>
<path fill="none" stroke="black" d="M255.36,-842.12C273.12,-832.75 301.38,-817.86 322.3,-806.83"/>
<polygon fill="black" stroke="black" points="323.93,-809.93 331.14,-802.17 320.67,-803.74 323.93,-809.93"/>
</g>
<!-- 2404636271136 -->
<g id="node16" class="node">
<title>2404636271136</title>
<polygon fill="lightgrey" stroke="black" points="304,-927.5 155,-927.5 155,-908.5 304,-908.5 304,-927.5"/>
<text text-anchor="middle" x="229.5" y="-915.5" font-family="monospace" font-size="10.00">CudnnBatchNormBackward</text>
</g>
<!-- 2404636271136&#45;&gt;2404636270992 -->
<g id="edge14" class="edge">
<title>2404636271136&#45;&gt;2404636270992</title>
<path fill="none" stroke="black" d="M230.75,-908.1C232.01,-899.12 234.01,-884.95 235.66,-873.22"/>
<polygon fill="black" stroke="black" points="239.12,-873.71 237.05,-863.32 232.19,-872.74 239.12,-873.71"/>
</g>
<!-- 2404636271232 -->
<g id="node17" class="node">
<title>2404636271232</title>
<polygon fill="lightgrey" stroke="black" points="161,-988 0,-988 0,-969 161,-969 161,-988"/>
<text text-anchor="middle" x="80.5" y="-976" font-family="monospace" font-size="10.00">CudnnConvolutionBackward</text>
</g>
<!-- 2404636271232&#45;&gt;2404636271136 -->
<g id="edge15" class="edge">
<title>2404636271232&#45;&gt;2404636271136</title>
<path fill="none" stroke="black" d="M103.13,-968.62C127.85,-958.91 167.71,-943.26 196.04,-932.14"/>
<polygon fill="black" stroke="black" points="197.22,-935.43 205.25,-928.52 194.66,-928.92 197.22,-935.43"/>
</g>
<!-- 2404636271424 -->
<g id="node18" class="node">
<title>2404636271424</title>
<polygon fill="lightgrey" stroke="black" points="131,-1048.5 30,-1048.5 30,-1029.5 131,-1029.5 131,-1048.5"/>
<text text-anchor="middle" x="80.5" y="-1036.5" font-family="monospace" font-size="10.00">AccumulateGrad</text>
</g>
<!-- 2404636271424&#45;&gt;2404636271232 -->
<g id="edge16" class="edge">
<title>2404636271424&#45;&gt;2404636271232</title>
<path fill="none" stroke="black" d="M80.5,-1029.37C80.5,-1021.5 80.5,-1009.6 80.5,-999.39"/>
<polygon fill="black" stroke="black" points="84,-999.68 80.5,-989.68 77,-999.68 84,-999.68"/>
</g>
<!-- 2404665835008 -->
<g id="node19" class="node">
<title>2404665835008</title>
<polygon fill="lightblue" stroke="black" points="131,-1120 30,-1120 30,-1090 131,-1090 131,-1120"/>
<text text-anchor="middle" x="80.5" y="-1108" font-family="monospace" font-size="10.00">0.weight</text>
<text text-anchor="middle" x="80.5" y="-1097" font-family="monospace" font-size="10.00"> (64, 3, 4, 4)</text>
</g>
<!-- 2404665835008&#45;&gt;2404636271424 -->
<g id="edge17" class="edge">
<title>2404665835008&#45;&gt;2404636271424</title>
<path fill="none" stroke="black" d="M80.5,-1089.8C80.5,-1081.09 80.5,-1069.81 80.5,-1060.18"/>
<polygon fill="black" stroke="black" points="84,-1060.36 80.5,-1050.36 77,-1060.36 84,-1060.36"/>
</g>
<!-- 2404636271184 -->
<g id="node20" class="node">
<title>2404636271184</title>
<polygon fill="lightgrey" stroke="black" points="280,-988 179,-988 179,-969 280,-969 280,-988"/>
<text text-anchor="middle" x="229.5" y="-976" font-family="monospace" font-size="10.00">AccumulateGrad</text>
</g>
<!-- 2404636271184&#45;&gt;2404636271136 -->
<g id="edge18" class="edge">
<title>2404636271184&#45;&gt;2404636271136</title>
<path fill="none" stroke="black" d="M229.5,-968.87C229.5,-961 229.5,-949.1 229.5,-938.89"/>
<polygon fill="black" stroke="black" points="233,-939.18 229.5,-929.18 226,-939.18 233,-939.18"/>
</g>
<!-- 2404635760448 -->
<g id="node21" class="node">
<title>2404635760448</title>
<polygon fill="lightblue" stroke="black" points="262,-1054 197,-1054 197,-1024 262,-1024 262,-1054"/>
<text text-anchor="middle" x="229.5" y="-1042" font-family="monospace" font-size="10.00">1.weight</text>
<text text-anchor="middle" x="229.5" y="-1031" font-family="monospace" font-size="10.00"> (64)</text>
</g>
<!-- 2404635760448&#45;&gt;2404636271184 -->
<g id="edge19" class="edge">
<title>2404635760448&#45;&gt;2404636271184</title>
<path fill="none" stroke="black" d="M229.5,-1023.54C229.5,-1016.34 229.5,-1007.53 229.5,-999.68"/>
<polygon fill="black" stroke="black" points="233,-999.69 229.5,-989.69 226,-999.69 233,-999.69"/>
</g>
<!-- 2404636271040 -->
<g id="node22" class="node">
<title>2404636271040</title>
<polygon fill="lightgrey" stroke="black" points="399,-988 298,-988 298,-969 399,-969 399,-988"/>
<text text-anchor="middle" x="348.5" y="-976" font-family="monospace" font-size="10.00">AccumulateGrad</text>
</g>
<!-- 2404636271040&#45;&gt;2404636271136 -->
<g id="edge20" class="edge">
<title>2404636271040&#45;&gt;2404636271136</title>
<path fill="none" stroke="black" d="M330.43,-968.62C311.21,-959.17 280.53,-944.09 258.04,-933.03"/>
<polygon fill="black" stroke="black" points="259.62,-929.91 249.1,-928.64 256.53,-936.19 259.62,-929.91"/>
</g>
<!-- 2404665892928 -->
<g id="node23" class="node">
<title>2404665892928</title>
<polygon fill="lightblue" stroke="black" points="375.5,-1054 321.5,-1054 321.5,-1024 375.5,-1024 375.5,-1054"/>
<text text-anchor="middle" x="348.5" y="-1042" font-family="monospace" font-size="10.00">1.bias</text>
<text text-anchor="middle" x="348.5" y="-1031" font-family="monospace" font-size="10.00"> (64)</text>
</g>
<!-- 2404665892928&#45;&gt;2404636271040 -->
<g id="edge21" class="edge">
<title>2404665892928&#45;&gt;2404636271040</title>
<path fill="none" stroke="black" d="M348.5,-1023.54C348.5,-1016.34 348.5,-1007.53 348.5,-999.68"/>
<polygon fill="black" stroke="black" points="352,-999.69 348.5,-989.69 345,-999.69 352,-999.69"/>
</g>
<!-- 2404636270944 -->
<g id="node24" class="node">
<title>2404636270944</title>
<polygon fill="lightgrey" stroke="black" points="424,-861.5 323,-861.5 323,-842.5 424,-842.5 424,-861.5"/>
<text text-anchor="middle" x="373.5" y="-849.5" font-family="monospace" font-size="10.00">AccumulateGrad</text>
</g>
<!-- 2404636270944&#45;&gt;2404636270800 -->
<g id="edge22" class="edge">
<title>2404636270944&#45;&gt;2404636270800</title>
<path fill="none" stroke="black" d="M369.96,-842.37C366.66,-834.33 361.63,-822.07 357.38,-811.72"/>
<polygon fill="black" stroke="black" points="360.66,-810.49 353.63,-802.57 354.19,-813.15 360.66,-810.49"/>
</g>
<!-- 2404635925696 -->
<g id="node25" class="node">
<title>2404635925696</title>
<polygon fill="lightblue" stroke="black" points="435,-933 322,-933 322,-903 435,-903 435,-933"/>
<text text-anchor="middle" x="378.5" y="-921" font-family="monospace" font-size="10.00">3.weight</text>
<text text-anchor="middle" x="378.5" y="-910" font-family="monospace" font-size="10.00"> (128, 64, 4, 4)</text>
</g>
<!-- 2404635925696&#45;&gt;2404636270944 -->
<g id="edge23" class="edge">
<title>2404635925696&#45;&gt;2404636270944</title>
<path fill="none" stroke="black" d="M377.39,-902.8C376.71,-894.09 375.83,-882.81 375.08,-873.18"/>
<polygon fill="black" stroke="black" points="378.58,-873.05 374.31,-863.35 371.6,-873.6 378.58,-873.05"/>
</g>
<!-- 2404636270752 -->
<g id="node26" class="node">
<title>2404636270752</title>
<polygon fill="lightgrey" stroke="black" points="549,-801 448,-801 448,-782 549,-782 549,-801"/>
<text text-anchor="middle" x="498.5" y="-789" font-family="monospace" font-size="10.00">AccumulateGrad</text>
</g>
<!-- 2404636270752&#45;&gt;2404666261664 -->
<g id="edge24" class="edge">
<title>2404636270752&#45;&gt;2404666261664</title>
<path fill="none" stroke="black" d="M498.5,-781.87C498.5,-774 498.5,-762.1 498.5,-751.89"/>
<polygon fill="black" stroke="black" points="502,-752.18 498.5,-742.18 495,-752.18 502,-752.18"/>
</g>
<!-- 2404665835072 -->
<g id="node27" class="node">
<title>2404665835072</title>
<polygon fill="lightblue" stroke="black" points="531,-867 466,-867 466,-837 531,-837 531,-867"/>
<text text-anchor="middle" x="498.5" y="-855" font-family="monospace" font-size="10.00">4.weight</text>
<text text-anchor="middle" x="498.5" y="-844" font-family="monospace" font-size="10.00"> (128)</text>
</g>
<!-- 2404665835072&#45;&gt;2404636270752 -->
<g id="edge25" class="edge">
<title>2404665835072&#45;&gt;2404636270752</title>
<path fill="none" stroke="black" d="M498.5,-836.54C498.5,-829.34 498.5,-820.53 498.5,-812.68"/>
<polygon fill="black" stroke="black" points="502,-812.69 498.5,-802.69 495,-812.69 502,-812.69"/>
</g>
<!-- 2404636270656 -->
<g id="node28" class="node">
<title>2404636270656</title>
<polygon fill="lightgrey" stroke="black" points="668,-801 567,-801 567,-782 668,-782 668,-801"/>
<text text-anchor="middle" x="617.5" y="-789" font-family="monospace" font-size="10.00">AccumulateGrad</text>
</g>
<!-- 2404636270656&#45;&gt;2404666261664 -->
<g id="edge26" class="edge">
<title>2404636270656&#45;&gt;2404666261664</title>
<path fill="none" stroke="black" d="M599.43,-781.62C580.21,-772.17 549.53,-757.09 527.04,-746.03"/>
<polygon fill="black" stroke="black" points="528.62,-742.91 518.1,-741.64 525.53,-749.19 528.62,-742.91"/>
</g>
<!-- 2404665892992 -->
<g id="node29" class="node">
<title>2404665892992</title>
<polygon fill="lightblue" stroke="black" points="644.5,-867 590.5,-867 590.5,-837 644.5,-837 644.5,-867"/>
<text text-anchor="middle" x="617.5" y="-855" font-family="monospace" font-size="10.00">4.bias</text>
<text text-anchor="middle" x="617.5" y="-844" font-family="monospace" font-size="10.00"> (128)</text>
</g>
<!-- 2404665892992&#45;&gt;2404636270656 -->
<g id="edge27" class="edge">
<title>2404665892992&#45;&gt;2404636270656</title>
<path fill="none" stroke="black" d="M617.5,-836.54C617.5,-829.34 617.5,-820.53 617.5,-812.68"/>
<polygon fill="black" stroke="black" points="621,-812.69 617.5,-802.69 614,-812.69 621,-812.69"/>
</g>
<!-- 2404666100176 -->
<g id="node30" class="node">
<title>2404666100176</title>
<polygon fill="lightgrey" stroke="black" points="695,-674.5 594,-674.5 594,-655.5 695,-655.5 695,-674.5"/>
<text text-anchor="middle" x="644.5" y="-662.5" font-family="monospace" font-size="10.00">AccumulateGrad</text>
</g>
<!-- 2404666100176&#45;&gt;2404666100368 -->
<g id="edge28" class="edge">
<title>2404666100176&#45;&gt;2404666100368</title>
<path fill="none" stroke="black" d="M640.96,-655.37C637.66,-647.33 632.63,-635.07 628.38,-624.72"/>
<polygon fill="black" stroke="black" points="631.66,-623.49 624.63,-615.57 625.19,-626.15 631.66,-623.49"/>
</g>
<!-- 2404665893504 -->
<g id="node31" class="node">
<title>2404665893504</title>
<polygon fill="lightblue" stroke="black" points="710,-746 591,-746 591,-716 710,-716 710,-746"/>
<text text-anchor="middle" x="650.5" y="-734" font-family="monospace" font-size="10.00">6.weight</text>
<text text-anchor="middle" x="650.5" y="-723" font-family="monospace" font-size="10.00"> (256, 128, 4, 4)</text>
</g>
<!-- 2404665893504&#45;&gt;2404666100176 -->
<g id="edge29" class="edge">
<title>2404665893504&#45;&gt;2404666100176</title>
<path fill="none" stroke="black" d="M649.17,-715.8C648.35,-707.09 647.29,-695.81 646.39,-686.18"/>
<polygon fill="black" stroke="black" points="649.89,-685.98 645.47,-676.35 642.92,-686.63 649.89,-685.98"/>
</g>
<!-- 2404666100416 -->
<g id="node32" class="node">
<title>2404666100416</title>
<polygon fill="lightgrey" stroke="black" points="820,-614 719,-614 719,-595 820,-595 820,-614"/>
<text text-anchor="middle" x="769.5" y="-602" font-family="monospace" font-size="10.00">AccumulateGrad</text>
</g>
<!-- 2404666100416&#45;&gt;2404666100464 -->
<g id="edge30" class="edge">
<title>2404666100416&#45;&gt;2404666100464</title>
<path fill="none" stroke="black" d="M769.5,-594.87C769.5,-587 769.5,-575.1 769.5,-564.89"/>
<polygon fill="black" stroke="black" points="773,-565.18 769.5,-555.18 766,-565.18 773,-565.18"/>
</g>
<!-- 2404665893376 -->
<g id="node33" class="node">
<title>2404665893376</title>
<polygon fill="lightblue" stroke="black" points="802,-680 737,-680 737,-650 802,-650 802,-680"/>
<text text-anchor="middle" x="769.5" y="-668" font-family="monospace" font-size="10.00">7.weight</text>
<text text-anchor="middle" x="769.5" y="-657" font-family="monospace" font-size="10.00"> (256)</text>
</g>
<!-- 2404665893376&#45;&gt;2404666100416 -->
<g id="edge31" class="edge">
<title>2404665893376&#45;&gt;2404666100416</title>
<path fill="none" stroke="black" d="M769.5,-649.54C769.5,-642.34 769.5,-633.53 769.5,-625.68"/>
<polygon fill="black" stroke="black" points="773,-625.69 769.5,-615.69 766,-625.69 773,-625.69"/>
</g>
<!-- 2404666100656 -->
<g id="node34" class="node">
<title>2404666100656</title>
<polygon fill="lightgrey" stroke="black" points="939,-614 838,-614 838,-595 939,-595 939,-614"/>
<text text-anchor="middle" x="888.5" y="-602" font-family="monospace" font-size="10.00">AccumulateGrad</text>
</g>
<!-- 2404666100656&#45;&gt;2404666100464 -->
<g id="edge32" class="edge">
<title>2404666100656&#45;&gt;2404666100464</title>
<path fill="none" stroke="black" d="M870.43,-594.62C851.21,-585.17 820.53,-570.09 798.04,-559.03"/>
<polygon fill="black" stroke="black" points="799.62,-555.91 789.1,-554.64 796.53,-562.19 799.62,-555.91"/>
</g>
<!-- 2404665893632 -->
<g id="node35" class="node">
<title>2404665893632</title>
<polygon fill="lightblue" stroke="black" points="915.5,-680 861.5,-680 861.5,-650 915.5,-650 915.5,-680"/>
<text text-anchor="middle" x="888.5" y="-668" font-family="monospace" font-size="10.00">7.bias</text>
<text text-anchor="middle" x="888.5" y="-657" font-family="monospace" font-size="10.00"> (256)</text>
</g>
<!-- 2404665893632&#45;&gt;2404666100656 -->
<g id="edge33" class="edge">
<title>2404665893632&#45;&gt;2404666100656</title>
<path fill="none" stroke="black" d="M888.5,-649.54C888.5,-642.34 888.5,-633.53 888.5,-625.68"/>
<polygon fill="black" stroke="black" points="892,-625.69 888.5,-615.69 885,-625.69 892,-625.69"/>
</g>
<!-- 2404666100752 -->
<g id="node36" class="node">
<title>2404666100752</title>
<polygon fill="lightgrey" stroke="black" points="966,-487.5 865,-487.5 865,-468.5 966,-468.5 966,-487.5"/>
<text text-anchor="middle" x="915.5" y="-475.5" font-family="monospace" font-size="10.00">AccumulateGrad</text>
</g>
<!-- 2404666100752&#45;&gt;2404666100896 -->
<g id="edge34" class="edge">
<title>2404666100752&#45;&gt;2404666100896</title>
<path fill="none" stroke="black" d="M912.11,-468.37C908.95,-460.33 904.13,-448.07 900.06,-437.72"/>
<polygon fill="black" stroke="black" points="903.38,-436.6 896.46,-428.58 896.86,-439.16 903.38,-436.6"/>
</g>
<!-- 2404665894144 -->
<g id="node37" class="node">
<title>2404665894144</title>
<polygon fill="lightblue" stroke="black" points="981,-559 862,-559 862,-529 981,-529 981,-559"/>
<text text-anchor="middle" x="921.5" y="-547" font-family="monospace" font-size="10.00">9.weight</text>
<text text-anchor="middle" x="921.5" y="-536" font-family="monospace" font-size="10.00"> (512, 256, 4, 4)</text>
</g>
<!-- 2404665894144&#45;&gt;2404666100752 -->
<g id="edge35" class="edge">
<title>2404665894144&#45;&gt;2404666100752</title>
<path fill="none" stroke="black" d="M920.17,-528.8C919.35,-520.09 918.29,-508.81 917.39,-499.18"/>
<polygon fill="black" stroke="black" points="920.89,-498.98 916.47,-489.35 913.92,-499.63 920.89,-498.98"/>
</g>
<!-- 2404666100944 -->
<g id="node38" class="node">
<title>2404666100944</title>
<polygon fill="lightgrey" stroke="black" points="1092,-427 991,-427 991,-408 1092,-408 1092,-427"/>
<text text-anchor="middle" x="1041.5" y="-415" font-family="monospace" font-size="10.00">AccumulateGrad</text>
</g>
<!-- 2404666100944&#45;&gt;2404666101136 -->
<g id="edge36" class="edge">
<title>2404666100944&#45;&gt;2404666101136</title>
<path fill="none" stroke="black" d="M1041.5,-407.87C1041.5,-400 1041.5,-388.1 1041.5,-377.89"/>
<polygon fill="black" stroke="black" points="1045,-378.18 1041.5,-368.18 1038,-378.18 1045,-378.18"/>
</g>
<!-- 2404665894016 -->
<g id="node39" class="node">
<title>2404665894016</title>
<polygon fill="lightblue" stroke="black" points="1077,-493 1006,-493 1006,-463 1077,-463 1077,-493"/>
<text text-anchor="middle" x="1041.5" y="-481" font-family="monospace" font-size="10.00">10.weight</text>
<text text-anchor="middle" x="1041.5" y="-470" font-family="monospace" font-size="10.00"> (512)</text>
</g>
<!-- 2404665894016&#45;&gt;2404666100944 -->
<g id="edge37" class="edge">
<title>2404665894016&#45;&gt;2404666100944</title>
<path fill="none" stroke="black" d="M1041.5,-462.54C1041.5,-455.34 1041.5,-446.53 1041.5,-438.68"/>
<polygon fill="black" stroke="black" points="1045,-438.69 1041.5,-428.69 1038,-438.69 1045,-438.69"/>
</g>
<!-- 2404666101232 -->
<g id="node40" class="node">
<title>2404666101232</title>
<polygon fill="lightgrey" stroke="black" points="1211,-427 1110,-427 1110,-408 1211,-408 1211,-427"/>
<text text-anchor="middle" x="1160.5" y="-415" font-family="monospace" font-size="10.00">AccumulateGrad</text>
</g>
<!-- 2404666101232&#45;&gt;2404666101136 -->
<g id="edge38" class="edge">
<title>2404666101232&#45;&gt;2404666101136</title>
<path fill="none" stroke="black" d="M1142.43,-407.62C1123.21,-398.17 1092.53,-383.09 1070.04,-372.03"/>
<polygon fill="black" stroke="black" points="1071.62,-368.91 1061.1,-367.64 1068.53,-375.19 1071.62,-368.91"/>
</g>
<!-- 2404665894272 -->
<g id="node41" class="node">
<title>2404665894272</title>
<polygon fill="lightblue" stroke="black" points="1190,-493 1131,-493 1131,-463 1190,-463 1190,-493"/>
<text text-anchor="middle" x="1160.5" y="-481" font-family="monospace" font-size="10.00">10.bias</text>
<text text-anchor="middle" x="1160.5" y="-470" font-family="monospace" font-size="10.00"> (512)</text>
</g>
<!-- 2404665894272&#45;&gt;2404666101232 -->
<g id="edge39" class="edge">
<title>2404665894272&#45;&gt;2404666101232</title>
<path fill="none" stroke="black" d="M1160.5,-462.54C1160.5,-455.34 1160.5,-446.53 1160.5,-438.68"/>
<polygon fill="black" stroke="black" points="1164,-438.69 1160.5,-428.69 1157,-438.69 1164,-438.69"/>
</g>
<!-- 2404666101328 -->
<g id="node42" class="node">
<title>2404666101328</title>
<polygon fill="lightgrey" stroke="black" points="1234,-306 1133,-306 1133,-287 1234,-287 1234,-306"/>
<text text-anchor="middle" x="1183.5" y="-294" font-family="monospace" font-size="10.00">AccumulateGrad</text>
</g>
<!-- 2404666101328&#45;&gt;2404666101664 -->
<g id="edge40" class="edge">
<title>2404666101328&#45;&gt;2404666101664</title>
<path fill="none" stroke="black" d="M1171.63,-286.51C1161.41,-278.77 1146.43,-267.43 1134.24,-258.2"/>
<polygon fill="black" stroke="black" points="1136.49,-255.52 1126.41,-252.27 1132.27,-261.1 1136.49,-255.52"/>
</g>
<!-- 2404665894720 -->
<g id="node43" class="node">
<title>2404665894720</title>
<polygon fill="lightblue" stroke="black" points="1241,-372 1134,-372 1134,-342 1241,-342 1241,-372"/>
<text text-anchor="middle" x="1187.5" y="-360" font-family="monospace" font-size="10.00">12.weight</text>
<text text-anchor="middle" x="1187.5" y="-349" font-family="monospace" font-size="10.00"> (1, 512, 4, 4)</text>
</g>
<!-- 2404665894720&#45;&gt;2404666101328 -->
<g id="edge41" class="edge">
<title>2404665894720&#45;&gt;2404666101328</title>
<path fill="none" stroke="black" d="M1186.51,-341.54C1186.01,-334.26 1185.4,-325.31 1184.86,-317.39"/>
<polygon fill="black" stroke="black" points="1188.37,-317.42 1184.2,-307.69 1181.39,-317.9 1188.37,-317.42"/>
</g>
</g>
</svg>
