<?xml version="1.0" encoding="UTF-8" standalone="no"?>
<!DOCTYPE svg PUBLIC "-//W3C//DTD SVG 1.1//EN"
 "http://www.w3.org/Graphics/SVG/1.1/DTD/svg11.dtd">
<!-- Generated by graphviz version 7.1.0 (20230121.1956)
 -->
<!-- Pages: 1 -->
<svg width="918pt" height="780pt"
 viewBox="0.00 0.00 918.00 780.33" xmlns="http://www.w3.org/2000/svg" xmlns:xlink="http://www.w3.org/1999/xlink">
<g id="graph0" class="graph" transform="scale(0.691786 0.691786) rotate(0) translate(4 1124)">
<polygon fill="white" stroke="none" points="-4,4 -4,-1124 1323,-1124 1323,4 -4,4"/>
<!-- 2404623864704 -->
<g id="node1" class="node">
<title>2404623864704</title>
<polygon fill="#caff70" stroke="black" points="1223.5,-31 1169.5,-31 1169.5,0 1223.5,0 1223.5,-31"/>
<text text-anchor="middle" x="1196.5" y="-7" font-family="monospace" font-size="10.00"> ()</text>
</g>
<!-- 2404636822448 -->
<g id="node2" class="node">
<title>2404636822448</title>
<polygon fill="lightgrey" stroke="black" points="1244,-86 1149,-86 1149,-67 1244,-67 1244,-86"/>
<text text-anchor="middle" x="1196.5" y="-74" font-family="monospace" font-size="10.00">MeanBackward0</text>
</g>
<!-- 2404636822448&#45;&gt;2404623864704 -->
<g id="edge42" class="edge">
<title>2404636822448&#45;&gt;2404623864704</title>
<path fill="none" stroke="black" d="M1196.5,-66.54C1196.5,-60.07 1196.5,-50.98 1196.5,-42.32"/>
<polygon fill="black" stroke="black" points="1200,-42.58 1196.5,-32.58 1193,-42.58 1200,-42.58"/>
</g>
<!-- 2404636822112 -->
<g id="node3" class="node">
<title>2404636822112</title>
<polygon fill="lightgrey" stroke="black" points="1244,-141 1149,-141 1149,-122 1244,-122 1244,-141"/>
<text text-anchor="middle" x="1196.5" y="-129" font-family="monospace" font-size="10.00">CopyBackwards</text>
</g>
<!-- 2404636822112&#45;&gt;2404636822448 -->
<g id="edge1" class="edge">
<title>2404636822112&#45;&gt;2404636822448</title>
<path fill="none" stroke="black" d="M1196.5,-121.75C1196.5,-115.27 1196.5,-106.16 1196.5,-97.9"/>
<polygon fill="black" stroke="black" points="1200,-97.96 1196.5,-87.96 1193,-97.96 1200,-97.96"/>
</g>
<!-- 2404636821920 -->
<g id="node4" class="node">
<title>2404636821920</title>
<polygon fill="lightgrey" stroke="black" points="1241,-196 1152,-196 1152,-177 1241,-177 1241,-196"/>
<text text-anchor="middle" x="1196.5" y="-184" font-family="monospace" font-size="10.00">TanhBackward</text>
</g>
<!-- 2404636821920&#45;&gt;2404636822112 -->
<g id="edge2" class="edge">
<title>2404636821920&#45;&gt;2404636822112</title>
<path fill="none" stroke="black" d="M1196.5,-176.75C1196.5,-170.27 1196.5,-161.16 1196.5,-152.9"/>
<polygon fill="black" stroke="black" points="1200,-152.96 1196.5,-142.96 1193,-152.96 1200,-152.96"/>
</g>
<!-- 2404636820528 -->
<g id="node5" class="node">
<title>2404636820528</title>
<polygon fill="lightgrey" stroke="black" points="1304,-251 1089,-251 1089,-232 1304,-232 1304,-251"/>
<text text-anchor="middle" x="1196.5" y="-239" font-family="monospace" font-size="10.00">CudnnConvolutionTransposeBackward</text>
</g>
<!-- 2404636820528&#45;&gt;2404636821920 -->
<g id="edge3" class="edge">
<title>2404636820528&#45;&gt;2404636821920</title>
<path fill="none" stroke="black" d="M1196.5,-231.75C1196.5,-225.27 1196.5,-216.16 1196.5,-207.9"/>
<polygon fill="black" stroke="black" points="1200,-207.96 1196.5,-197.96 1193,-207.96 1200,-207.96"/>
</g>
<!-- 2404636821104 -->
<g id="node6" class="node">
<title>2404636821104</title>
<polygon fill="lightgrey" stroke="black" points="1186,-306 1091,-306 1091,-287 1186,-287 1186,-306"/>
<text text-anchor="middle" x="1138.5" y="-294" font-family="monospace" font-size="10.00">ReluBackward1</text>
</g>
<!-- 2404636821104&#45;&gt;2404636820528 -->
<g id="edge4" class="edge">
<title>2404636821104&#45;&gt;2404636820528</title>
<path fill="none" stroke="black" d="M1148.34,-286.51C1156.55,-279 1168.48,-268.1 1178.41,-259.03"/>
<polygon fill="black" stroke="black" points="1180.67,-261.71 1185.69,-252.38 1175.95,-256.54 1180.67,-261.71"/>
</g>
<!-- 2404636821056 -->
<g id="node7" class="node">
<title>2404636821056</title>
<polygon fill="lightgrey" stroke="black" points="1200,-366.5 1051,-366.5 1051,-347.5 1200,-347.5 1200,-366.5"/>
<text text-anchor="middle" x="1125.5" y="-354.5" font-family="monospace" font-size="10.00">CudnnBatchNormBackward</text>
</g>
<!-- 2404636821056&#45;&gt;2404636821104 -->
<g id="edge5" class="edge">
<title>2404636821056&#45;&gt;2404636821104</title>
<path fill="none" stroke="black" d="M1127.42,-347.37C1129.17,-339.5 1131.81,-327.6 1134.08,-317.39"/>
<polygon fill="black" stroke="black" points="1137.49,-318.17 1136.25,-307.64 1130.66,-316.65 1137.49,-318.17"/>
</g>
<!-- 2404636821344 -->
<g id="node8" class="node">
<title>2404636821344</title>
<polygon fill="lightgrey" stroke="black" points="1057,-427 842,-427 842,-408 1057,-408 1057,-427"/>
<text text-anchor="middle" x="949.5" y="-415" font-family="monospace" font-size="10.00">CudnnConvolutionTransposeBackward</text>
</g>
<!-- 2404636821344&#45;&gt;2404636821056 -->
<g id="edge6" class="edge">
<title>2404636821344&#45;&gt;2404636821056</title>
<path fill="none" stroke="black" d="M976.23,-407.62C1005.95,-397.74 1054.18,-381.71 1087.75,-370.55"/>
<polygon fill="black" stroke="black" points="1088.7,-373.92 1097.08,-367.45 1086.49,-367.28 1088.7,-373.92"/>
</g>
<!-- 2404636820816 -->
<g id="node9" class="node">
<title>2404636820816</title>
<polygon fill="lightgrey" stroke="black" points="909,-487.5 814,-487.5 814,-468.5 909,-468.5 909,-487.5"/>
<text text-anchor="middle" x="861.5" y="-475.5" font-family="monospace" font-size="10.00">ReluBackward1</text>
</g>
<!-- 2404636820816&#45;&gt;2404636821344 -->
<g id="edge7" class="edge">
<title>2404636820816&#45;&gt;2404636821344</title>
<path fill="none" stroke="black" d="M874.87,-468.12C888.56,-459.01 910.12,-444.68 926.56,-433.75"/>
<polygon fill="black" stroke="black" points="928.36,-436.76 934.75,-428.31 924.48,-430.93 928.36,-436.76"/>
</g>
<!-- 2404636823456 -->
<g id="node10" class="node">
<title>2404636823456</title>
<polygon fill="lightgrey" stroke="black" points="920,-553.5 771,-553.5 771,-534.5 920,-534.5 920,-553.5"/>
<text text-anchor="middle" x="845.5" y="-541.5" font-family="monospace" font-size="10.00">CudnnBatchNormBackward</text>
</g>
<!-- 2404636823456&#45;&gt;2404636820816 -->
<g id="edge8" class="edge">
<title>2404636823456&#45;&gt;2404636820816</title>
<path fill="none" stroke="black" d="M847.72,-534.1C849.99,-525.03 853.59,-510.64 856.54,-498.85"/>
<polygon fill="black" stroke="black" points="859.9,-499.84 858.93,-489.29 853.11,-498.14 859.9,-499.84"/>
</g>
<!-- 2404636821728 -->
<g id="node11" class="node">
<title>2404636821728</title>
<polygon fill="lightgrey" stroke="black" points="777,-614 562,-614 562,-595 777,-595 777,-614"/>
<text text-anchor="middle" x="669.5" y="-602" font-family="monospace" font-size="10.00">CudnnConvolutionTransposeBackward</text>
</g>
<!-- 2404636821728&#45;&gt;2404636823456 -->
<g id="edge9" class="edge">
<title>2404636821728&#45;&gt;2404636823456</title>
<path fill="none" stroke="black" d="M696.23,-594.62C725.95,-584.74 774.18,-568.71 807.75,-557.55"/>
<polygon fill="black" stroke="black" points="808.7,-560.92 817.08,-554.45 806.49,-554.28 808.7,-560.92"/>
</g>
<!-- 2404636821008 -->
<g id="node12" class="node">
<title>2404636821008</title>
<polygon fill="lightgrey" stroke="black" points="630,-674.5 535,-674.5 535,-655.5 630,-655.5 630,-674.5"/>
<text text-anchor="middle" x="582.5" y="-662.5" font-family="monospace" font-size="10.00">ReluBackward1</text>
</g>
<!-- 2404636821008&#45;&gt;2404636821728 -->
<g id="edge10" class="edge">
<title>2404636821008&#45;&gt;2404636821728</title>
<path fill="none" stroke="black" d="M595.71,-655.12C609.25,-646.01 630.57,-631.68 646.82,-620.75"/>
<polygon fill="black" stroke="black" points="648.56,-623.8 654.91,-615.31 644.65,-617.99 648.56,-623.8"/>
</g>
<!-- 2404636822256 -->
<g id="node13" class="node">
<title>2404636822256</title>
<polygon fill="lightgrey" stroke="black" points="639,-740.5 490,-740.5 490,-721.5 639,-721.5 639,-740.5"/>
<text text-anchor="middle" x="564.5" y="-728.5" font-family="monospace" font-size="10.00">CudnnBatchNormBackward</text>
</g>
<!-- 2404636822256&#45;&gt;2404636821008 -->
<g id="edge11" class="edge">
<title>2404636822256&#45;&gt;2404636821008</title>
<path fill="none" stroke="black" d="M567,-721.1C569.56,-712.03 573.6,-697.64 576.92,-685.85"/>
<polygon fill="black" stroke="black" points="580.27,-686.85 579.61,-676.28 573.53,-684.96 580.27,-686.85"/>
</g>
<!-- 2404636820624 -->
<g id="node14" class="node">
<title>2404636820624</title>
<polygon fill="lightgrey" stroke="black" points="496,-801 281,-801 281,-782 496,-782 496,-801"/>
<text text-anchor="middle" x="388.5" y="-789" font-family="monospace" font-size="10.00">CudnnConvolutionTransposeBackward</text>
</g>
<!-- 2404636820624&#45;&gt;2404636822256 -->
<g id="edge12" class="edge">
<title>2404636820624&#45;&gt;2404636822256</title>
<path fill="none" stroke="black" d="M415.23,-781.62C444.95,-771.74 493.18,-755.71 526.75,-744.55"/>
<polygon fill="black" stroke="black" points="527.7,-747.92 536.08,-741.45 525.49,-741.28 527.7,-747.92"/>
</g>
<!-- 2404636821296 -->
<g id="node15" class="node">
<title>2404636821296</title>
<polygon fill="lightgrey" stroke="black" points="349,-861.5 254,-861.5 254,-842.5 349,-842.5 349,-861.5"/>
<text text-anchor="middle" x="301.5" y="-849.5" font-family="monospace" font-size="10.00">ReluBackward1</text>
</g>
<!-- 2404636821296&#45;&gt;2404636820624 -->
<g id="edge13" class="edge">
<title>2404636821296&#45;&gt;2404636820624</title>
<path fill="none" stroke="black" d="M314.71,-842.12C328.25,-833.01 349.57,-818.68 365.82,-807.75"/>
<polygon fill="black" stroke="black" points="367.56,-810.8 373.91,-802.31 363.65,-804.99 367.56,-810.8"/>
</g>
<!-- 2404636822304 -->
<g id="node16" class="node">
<title>2404636822304</title>
<polygon fill="lightgrey" stroke="black" points="358,-927.5 209,-927.5 209,-908.5 358,-908.5 358,-927.5"/>
<text text-anchor="middle" x="283.5" y="-915.5" font-family="monospace" font-size="10.00">CudnnBatchNormBackward</text>
</g>
<!-- 2404636822304&#45;&gt;2404636821296 -->
<g id="edge14" class="edge">
<title>2404636822304&#45;&gt;2404636821296</title>
<path fill="none" stroke="black" d="M286,-908.1C288.56,-899.03 292.6,-884.64 295.92,-872.85"/>
<polygon fill="black" stroke="black" points="299.27,-873.85 298.61,-863.28 292.53,-871.96 299.27,-873.85"/>
</g>
<!-- 2404636822208 -->
<g id="node17" class="node">
<title>2404636822208</title>
<polygon fill="lightgrey" stroke="black" points="215,-988 0,-988 0,-969 215,-969 215,-988"/>
<text text-anchor="middle" x="107.5" y="-976" font-family="monospace" font-size="10.00">CudnnConvolutionTransposeBackward</text>
</g>
<!-- 2404636822208&#45;&gt;2404636822304 -->
<g id="edge15" class="edge">
<title>2404636822208&#45;&gt;2404636822304</title>
<path fill="none" stroke="black" d="M134.23,-968.62C163.95,-958.74 212.18,-942.71 245.75,-931.55"/>
<polygon fill="black" stroke="black" points="246.7,-934.92 255.08,-928.45 244.49,-928.28 246.7,-934.92"/>
</g>
<!-- 2404636772336 -->
<g id="node18" class="node">
<title>2404636772336</title>
<polygon fill="lightgrey" stroke="black" points="158,-1048.5 57,-1048.5 57,-1029.5 158,-1029.5 158,-1048.5"/>
<text text-anchor="middle" x="107.5" y="-1036.5" font-family="monospace" font-size="10.00">AccumulateGrad</text>
</g>
<!-- 2404636772336&#45;&gt;2404636822208 -->
<g id="edge16" class="edge">
<title>2404636772336&#45;&gt;2404636822208</title>
<path fill="none" stroke="black" d="M107.5,-1029.37C107.5,-1021.5 107.5,-1009.6 107.5,-999.39"/>
<polygon fill="black" stroke="black" points="111,-999.68 107.5,-989.68 104,-999.68 111,-999.68"/>
</g>
<!-- 2404675525184 -->
<g id="node19" class="node">
<title>2404675525184</title>
<polygon fill="lightblue" stroke="black" points="167,-1120 48,-1120 48,-1090 167,-1090 167,-1120"/>
<text text-anchor="middle" x="107.5" y="-1108" font-family="monospace" font-size="10.00">0.weight</text>
<text text-anchor="middle" x="107.5" y="-1097" font-family="monospace" font-size="10.00"> (128, 512, 4, 4)</text>
</g>
<!-- 2404675525184&#45;&gt;2404636772336 -->
<g id="edge17" class="edge">
<title>2404675525184&#45;&gt;2404636772336</title>
<path fill="none" stroke="black" d="M107.5,-1089.8C107.5,-1081.09 107.5,-1069.81 107.5,-1060.18"/>
<polygon fill="black" stroke="black" points="111,-1060.36 107.5,-1050.36 104,-1060.36 111,-1060.36"/>
</g>
<!-- 2404636821872 -->
<g id="node20" class="node">
<title>2404636821872</title>
<polygon fill="lightgrey" stroke="black" points="334,-988 233,-988 233,-969 334,-969 334,-988"/>
<text text-anchor="middle" x="283.5" y="-976" font-family="monospace" font-size="10.00">AccumulateGrad</text>
</g>
<!-- 2404636821872&#45;&gt;2404636822304 -->
<g id="edge18" class="edge">
<title>2404636821872&#45;&gt;2404636822304</title>
<path fill="none" stroke="black" d="M283.5,-968.87C283.5,-961 283.5,-949.1 283.5,-938.89"/>
<polygon fill="black" stroke="black" points="287,-939.18 283.5,-929.18 280,-939.18 287,-939.18"/>
</g>
<!-- 2404632928768 -->
<g id="node21" class="node">
<title>2404632928768</title>
<polygon fill="lightblue" stroke="black" points="316,-1054 251,-1054 251,-1024 316,-1024 316,-1054"/>
<text text-anchor="middle" x="283.5" y="-1042" font-family="monospace" font-size="10.00">1.weight</text>
<text text-anchor="middle" x="283.5" y="-1031" font-family="monospace" font-size="10.00"> (512)</text>
</g>
<!-- 2404632928768&#45;&gt;2404636821872 -->
<g id="edge19" class="edge">
<title>2404632928768&#45;&gt;2404636821872</title>
<path fill="none" stroke="black" d="M283.5,-1023.54C283.5,-1016.34 283.5,-1007.53 283.5,-999.68"/>
<polygon fill="black" stroke="black" points="287,-999.69 283.5,-989.69 280,-999.69 287,-999.69"/>
</g>
<!-- 2404636821392 -->
<g id="node22" class="node">
<title>2404636821392</title>
<polygon fill="lightgrey" stroke="black" points="453,-988 352,-988 352,-969 453,-969 453,-988"/>
<text text-anchor="middle" x="402.5" y="-976" font-family="monospace" font-size="10.00">AccumulateGrad</text>
</g>
<!-- 2404636821392&#45;&gt;2404636822304 -->
<g id="edge20" class="edge">
<title>2404636821392&#45;&gt;2404636822304</title>
<path fill="none" stroke="black" d="M384.43,-968.62C365.21,-959.17 334.53,-944.09 312.04,-933.03"/>
<polygon fill="black" stroke="black" points="313.62,-929.91 303.1,-928.64 310.53,-936.19 313.62,-929.91"/>
</g>
<!-- 2404675524480 -->
<g id="node23" class="node">
<title>2404675524480</title>
<polygon fill="lightblue" stroke="black" points="429.5,-1054 375.5,-1054 375.5,-1024 429.5,-1024 429.5,-1054"/>
<text text-anchor="middle" x="402.5" y="-1042" font-family="monospace" font-size="10.00">1.bias</text>
<text text-anchor="middle" x="402.5" y="-1031" font-family="monospace" font-size="10.00"> (512)</text>
</g>
<!-- 2404675524480&#45;&gt;2404636821392 -->
<g id="edge21" class="edge">
<title>2404675524480&#45;&gt;2404636821392</title>
<path fill="none" stroke="black" d="M402.5,-1023.54C402.5,-1016.34 402.5,-1007.53 402.5,-999.68"/>
<polygon fill="black" stroke="black" points="406,-999.69 402.5,-989.69 399,-999.69 406,-999.69"/>
</g>
<!-- 2404636822352 -->
<g id="node24" class="node">
<title>2404636822352</title>
<polygon fill="lightgrey" stroke="black" points="477,-861.5 376,-861.5 376,-842.5 477,-842.5 477,-861.5"/>
<text text-anchor="middle" x="426.5" y="-849.5" font-family="monospace" font-size="10.00">AccumulateGrad</text>
</g>
<!-- 2404636822352&#45;&gt;2404636820624 -->
<g id="edge22" class="edge">
<title>2404636822352&#45;&gt;2404636820624</title>
<path fill="none" stroke="black" d="M420.89,-842.37C415.5,-834.07 407.19,-821.28 400.34,-810.72"/>
<polygon fill="black" stroke="black" points="403.34,-808.92 394.95,-802.44 397.47,-812.73 403.34,-808.92"/>
</g>
<!-- 2404675489216 -->
<g id="node25" class="node">
<title>2404675489216</title>
<polygon fill="lightblue" stroke="black" points="495,-933 376,-933 376,-903 495,-903 495,-933"/>
<text text-anchor="middle" x="435.5" y="-921" font-family="monospace" font-size="10.00">3.weight</text>
<text text-anchor="middle" x="435.5" y="-910" font-family="monospace" font-size="10.00"> (512, 256, 4, 4)</text>
</g>
<!-- 2404675489216&#45;&gt;2404636822352 -->
<g id="edge23" class="edge">
<title>2404675489216&#45;&gt;2404636822352</title>
<path fill="none" stroke="black" d="M433.5,-902.8C432.28,-894.09 430.69,-882.81 429.34,-873.18"/>
<polygon fill="black" stroke="black" points="432.81,-872.76 427.95,-863.34 425.88,-873.73 432.81,-872.76"/>
</g>
<!-- 2404636822400 -->
<g id="node26" class="node">
<title>2404636822400</title>
<polygon fill="lightgrey" stroke="black" points="615,-801 514,-801 514,-782 615,-782 615,-801"/>
<text text-anchor="middle" x="564.5" y="-789" font-family="monospace" font-size="10.00">AccumulateGrad</text>
</g>
<!-- 2404636822400&#45;&gt;2404636822256 -->
<g id="edge24" class="edge">
<title>2404636822400&#45;&gt;2404636822256</title>
<path fill="none" stroke="black" d="M564.5,-781.87C564.5,-774 564.5,-762.1 564.5,-751.89"/>
<polygon fill="black" stroke="black" points="568,-752.18 564.5,-742.18 561,-752.18 568,-752.18"/>
</g>
<!-- 2404675486016 -->
<g id="node27" class="node">
<title>2404675486016</title>
<polygon fill="lightblue" stroke="black" points="597,-867 532,-867 532,-837 597,-837 597,-867"/>
<text text-anchor="middle" x="564.5" y="-855" font-family="monospace" font-size="10.00">4.weight</text>
<text text-anchor="middle" x="564.5" y="-844" font-family="monospace" font-size="10.00"> (256)</text>
</g>
<!-- 2404675486016&#45;&gt;2404636822400 -->
<g id="edge25" class="edge">
<title>2404675486016&#45;&gt;2404636822400</title>
<path fill="none" stroke="black" d="M564.5,-836.54C564.5,-829.34 564.5,-820.53 564.5,-812.68"/>
<polygon fill="black" stroke="black" points="568,-812.69 564.5,-802.69 561,-812.69 568,-812.69"/>
</g>
<!-- 2404636823264 -->
<g id="node28" class="node">
<title>2404636823264</title>
<polygon fill="lightgrey" stroke="black" points="734,-801 633,-801 633,-782 734,-782 734,-801"/>
<text text-anchor="middle" x="683.5" y="-789" font-family="monospace" font-size="10.00">AccumulateGrad</text>
</g>
<!-- 2404636823264&#45;&gt;2404636822256 -->
<g id="edge26" class="edge">
<title>2404636823264&#45;&gt;2404636822256</title>
<path fill="none" stroke="black" d="M665.43,-781.62C646.21,-772.17 615.53,-757.09 593.04,-746.03"/>
<polygon fill="black" stroke="black" points="594.62,-742.91 584.1,-741.64 591.53,-749.19 594.62,-742.91"/>
</g>
<!-- 2404675486656 -->
<g id="node29" class="node">
<title>2404675486656</title>
<polygon fill="lightblue" stroke="black" points="710.5,-867 656.5,-867 656.5,-837 710.5,-837 710.5,-867"/>
<text text-anchor="middle" x="683.5" y="-855" font-family="monospace" font-size="10.00">4.bias</text>
<text text-anchor="middle" x="683.5" y="-844" font-family="monospace" font-size="10.00"> (256)</text>
</g>
<!-- 2404675486656&#45;&gt;2404636823264 -->
<g id="edge27" class="edge">
<title>2404675486656&#45;&gt;2404636823264</title>
<path fill="none" stroke="black" d="M683.5,-836.54C683.5,-829.34 683.5,-820.53 683.5,-812.68"/>
<polygon fill="black" stroke="black" points="687,-812.69 683.5,-802.69 680,-812.69 687,-812.69"/>
</g>
<!-- 2404636821776 -->
<g id="node30" class="node">
<title>2404636821776</title>
<polygon fill="lightgrey" stroke="black" points="758,-674.5 657,-674.5 657,-655.5 758,-655.5 758,-674.5"/>
<text text-anchor="middle" x="707.5" y="-662.5" font-family="monospace" font-size="10.00">AccumulateGrad</text>
</g>
<!-- 2404636821776&#45;&gt;2404636821728 -->
<g id="edge28" class="edge">
<title>2404636821776&#45;&gt;2404636821728</title>
<path fill="none" stroke="black" d="M701.89,-655.37C696.5,-647.07 688.19,-634.28 681.34,-623.72"/>
<polygon fill="black" stroke="black" points="684.34,-621.92 675.95,-615.44 678.47,-625.73 684.34,-621.92"/>
</g>
<!-- 2404675485888 -->
<g id="node31" class="node">
<title>2404675485888</title>
<polygon fill="lightblue" stroke="black" points="776,-746 657,-746 657,-716 776,-716 776,-746"/>
<text text-anchor="middle" x="716.5" y="-734" font-family="monospace" font-size="10.00">6.weight</text>
<text text-anchor="middle" x="716.5" y="-723" font-family="monospace" font-size="10.00"> (256, 128, 4, 4)</text>
</g>
<!-- 2404675485888&#45;&gt;2404636821776 -->
<g id="edge29" class="edge">
<title>2404675485888&#45;&gt;2404636821776</title>
<path fill="none" stroke="black" d="M714.5,-715.8C713.28,-707.09 711.69,-695.81 710.34,-686.18"/>
<polygon fill="black" stroke="black" points="713.81,-685.76 708.95,-676.34 706.88,-686.73 713.81,-685.76"/>
</g>
<!-- 2404636821440 -->
<g id="node32" class="node">
<title>2404636821440</title>
<polygon fill="lightgrey" stroke="black" points="896,-614 795,-614 795,-595 896,-595 896,-614"/>
<text text-anchor="middle" x="845.5" y="-602" font-family="monospace" font-size="10.00">AccumulateGrad</text>
</g>
<!-- 2404636821440&#45;&gt;2404636823456 -->
<g id="edge30" class="edge">
<title>2404636821440&#45;&gt;2404636823456</title>
<path fill="none" stroke="black" d="M845.5,-594.87C845.5,-587 845.5,-575.1 845.5,-564.89"/>
<polygon fill="black" stroke="black" points="849,-565.18 845.5,-555.18 842,-565.18 849,-565.18"/>
</g>
<!-- 2404675487872 -->
<g id="node33" class="node">
<title>2404675487872</title>
<polygon fill="lightblue" stroke="black" points="878,-680 813,-680 813,-650 878,-650 878,-680"/>
<text text-anchor="middle" x="845.5" y="-668" font-family="monospace" font-size="10.00">7.weight</text>
<text text-anchor="middle" x="845.5" y="-657" font-family="monospace" font-size="10.00"> (128)</text>
</g>
<!-- 2404675487872&#45;&gt;2404636821440 -->
<g id="edge31" class="edge">
<title>2404675487872&#45;&gt;2404636821440</title>
<path fill="none" stroke="black" d="M845.5,-649.54C845.5,-642.34 845.5,-633.53 845.5,-625.68"/>
<polygon fill="black" stroke="black" points="849,-625.69 845.5,-615.69 842,-625.69 849,-625.69"/>
</g>
<!-- 2404636820384 -->
<g id="node34" class="node">
<title>2404636820384</title>
<polygon fill="lightgrey" stroke="black" points="1015,-614 914,-614 914,-595 1015,-595 1015,-614"/>
<text text-anchor="middle" x="964.5" y="-602" font-family="monospace" font-size="10.00">AccumulateGrad</text>
</g>
<!-- 2404636820384&#45;&gt;2404636823456 -->
<g id="edge32" class="edge">
<title>2404636820384&#45;&gt;2404636823456</title>
<path fill="none" stroke="black" d="M946.43,-594.62C927.21,-585.17 896.53,-570.09 874.04,-559.03"/>
<polygon fill="black" stroke="black" points="875.62,-555.91 865.1,-554.64 872.53,-562.19 875.62,-555.91"/>
</g>
<!-- 2404675487808 -->
<g id="node35" class="node">
<title>2404675487808</title>
<polygon fill="lightblue" stroke="black" points="991.5,-680 937.5,-680 937.5,-650 991.5,-650 991.5,-680"/>
<text text-anchor="middle" x="964.5" y="-668" font-family="monospace" font-size="10.00">7.bias</text>
<text text-anchor="middle" x="964.5" y="-657" font-family="monospace" font-size="10.00"> (128)</text>
</g>
<!-- 2404675487808&#45;&gt;2404636820384 -->
<g id="edge33" class="edge">
<title>2404675487808&#45;&gt;2404636820384</title>
<path fill="none" stroke="black" d="M964.5,-649.54C964.5,-642.34 964.5,-633.53 964.5,-625.68"/>
<polygon fill="black" stroke="black" points="968,-625.69 964.5,-615.69 961,-625.69 968,-625.69"/>
</g>
<!-- 2404636819808 -->
<g id="node36" class="node">
<title>2404636819808</title>
<polygon fill="lightgrey" stroke="black" points="1036,-487.5 935,-487.5 935,-468.5 1036,-468.5 1036,-487.5"/>
<text text-anchor="middle" x="985.5" y="-475.5" font-family="monospace" font-size="10.00">AccumulateGrad</text>
</g>
<!-- 2404636819808&#45;&gt;2404636821344 -->
<g id="edge34" class="edge">
<title>2404636819808&#45;&gt;2404636821344</title>
<path fill="none" stroke="black" d="M980.19,-468.37C975.08,-460.07 967.21,-447.28 960.71,-436.72"/>
<polygon fill="black" stroke="black" points="963.85,-435.14 955.63,-428.46 957.89,-438.81 963.85,-435.14"/>
</g>
<!-- 2404675487488 -->
<g id="node37" class="node">
<title>2404675487488</title>
<polygon fill="lightblue" stroke="black" points="1051,-559 938,-559 938,-529 1051,-529 1051,-559"/>
<text text-anchor="middle" x="994.5" y="-547" font-family="monospace" font-size="10.00">9.weight</text>
<text text-anchor="middle" x="994.5" y="-536" font-family="monospace" font-size="10.00"> (128, 64, 4, 4)</text>
</g>
<!-- 2404675487488&#45;&gt;2404636819808 -->
<g id="edge35" class="edge">
<title>2404675487488&#45;&gt;2404636819808</title>
<path fill="none" stroke="black" d="M992.5,-528.8C991.28,-520.09 989.69,-508.81 988.34,-499.18"/>
<polygon fill="black" stroke="black" points="991.81,-498.76 986.95,-489.34 984.88,-499.73 991.81,-498.76"/>
</g>
<!-- 2404636819760 -->
<g id="node38" class="node">
<title>2404636819760</title>
<polygon fill="lightgrey" stroke="black" points="1176,-427 1075,-427 1075,-408 1176,-408 1176,-427"/>
<text text-anchor="middle" x="1125.5" y="-415" font-family="monospace" font-size="10.00">AccumulateGrad</text>
</g>
<!-- 2404636819760&#45;&gt;2404636821056 -->
<g id="edge36" class="edge">
<title>2404636819760&#45;&gt;2404636821056</title>
<path fill="none" stroke="black" d="M1125.5,-407.87C1125.5,-400 1125.5,-388.1 1125.5,-377.89"/>
<polygon fill="black" stroke="black" points="1129,-378.18 1125.5,-368.18 1122,-378.18 1129,-378.18"/>
</g>
<!-- 2404675487424 -->
<g id="node39" class="node">
<title>2404675487424</title>
<polygon fill="lightblue" stroke="black" points="1161,-493 1090,-493 1090,-463 1161,-463 1161,-493"/>
<text text-anchor="middle" x="1125.5" y="-481" font-family="monospace" font-size="10.00">10.weight</text>
<text text-anchor="middle" x="1125.5" y="-470" font-family="monospace" font-size="10.00"> (64)</text>
</g>
<!-- 2404675487424&#45;&gt;2404636819760 -->
<g id="edge37" class="edge">
<title>2404675487424&#45;&gt;2404636819760</title>
<path fill="none" stroke="black" d="M1125.5,-462.54C1125.5,-455.34 1125.5,-446.53 1125.5,-438.68"/>
<polygon fill="black" stroke="black" points="1129,-438.69 1125.5,-428.69 1122,-438.69 1129,-438.69"/>
</g>
<!-- 2404636821536 -->
<g id="node40" class="node">
<title>2404636821536</title>
<polygon fill="lightgrey" stroke="black" points="1295,-427 1194,-427 1194,-408 1295,-408 1295,-427"/>
<text text-anchor="middle" x="1244.5" y="-415" font-family="monospace" font-size="10.00">AccumulateGrad</text>
</g>
<!-- 2404636821536&#45;&gt;2404636821056 -->
<g id="edge38" class="edge">
<title>2404636821536&#45;&gt;2404636821056</title>
<path fill="none" stroke="black" d="M1226.43,-407.62C1207.21,-398.17 1176.53,-383.09 1154.04,-372.03"/>
<polygon fill="black" stroke="black" points="1155.62,-368.91 1145.1,-367.64 1152.53,-375.19 1155.62,-368.91"/>
</g>
<!-- 2404675488064 -->
<g id="node41" class="node">
<title>2404675488064</title>
<polygon fill="lightblue" stroke="black" points="1274,-493 1215,-493 1215,-463 1274,-463 1274,-493"/>
<text text-anchor="middle" x="1244.5" y="-481" font-family="monospace" font-size="10.00">10.bias</text>
<text text-anchor="middle" x="1244.5" y="-470" font-family="monospace" font-size="10.00"> (64)</text>
</g>
<!-- 2404675488064&#45;&gt;2404636821536 -->
<g id="edge39" class="edge">
<title>2404675488064&#45;&gt;2404636821536</title>
<path fill="none" stroke="black" d="M1244.5,-462.54C1244.5,-455.34 1244.5,-446.53 1244.5,-438.68"/>
<polygon fill="black" stroke="black" points="1248,-438.69 1244.5,-428.69 1241,-438.69 1248,-438.69"/>
</g>
<!-- 2404636821968 -->
<g id="node42" class="node">
<title>2404636821968</title>
<polygon fill="lightgrey" stroke="black" points="1312,-306 1211,-306 1211,-287 1312,-287 1312,-306"/>
<text text-anchor="middle" x="1261.5" y="-294" font-family="monospace" font-size="10.00">AccumulateGrad</text>
</g>
<!-- 2404636821968&#45;&gt;2404636820528 -->
<g id="edge40" class="edge">
<title>2404636821968&#45;&gt;2404636820528</title>
<path fill="none" stroke="black" d="M1250.47,-286.51C1241.08,-278.85 1227.35,-267.66 1216.09,-258.47"/>
<polygon fill="black" stroke="black" points="1218.5,-255.92 1208.54,-252.31 1214.07,-261.35 1218.5,-255.92"/>
</g>
<!-- 2404675488384 -->
<g id="node43" class="node">
<title>2404675488384</title>
<polygon fill="lightblue" stroke="black" points="1319,-372 1218,-372 1218,-342 1319,-342 1319,-372"/>
<text text-anchor="middle" x="1268.5" y="-360" font-family="monospace" font-size="10.00">12.weight</text>
<text text-anchor="middle" x="1268.5" y="-349" font-family="monospace" font-size="10.00"> (64, 3, 4, 4)</text>
</g>
<!-- 2404675488384&#45;&gt;2404636821968 -->
<g id="edge41" class="edge">
<title>2404675488384&#45;&gt;2404636821968</title>
<path fill="none" stroke="black" d="M1266.77,-341.54C1265.9,-334.26 1264.83,-325.31 1263.88,-317.39"/>
<polygon fill="black" stroke="black" points="1267.38,-317.19 1262.72,-307.68 1260.43,-318.02 1267.38,-317.19"/>
</g>
</g>
</svg>
